<svg width="423" height="216" viewBox="0 0 423 216" fill="none" xmlns="http://www.w3.org/2000/svg">
<line opacity="0.1" x1="6" y1="1.39963" x2="419.984" y2="1.39963" stroke="#1D2125" stroke-width="1.20074" stroke-dasharray="4.8 7.2"/>
<line opacity="0.1" x1="6" y1="39.0905" x2="419.984" y2="39.0905" stroke="#1D2125" stroke-width="1.20074" stroke-dasharray="4.8 7.2"/>
<line opacity="0.1" x1="6" y1="76.7817" x2="419.984" y2="76.7817" stroke="#1D2125" stroke-width="1.20074" stroke-dasharray="4.8 7.2"/>
<line opacity="0.1" x1="6" y1="114.473" x2="419.984" y2="114.473" stroke="#1D2125" stroke-width="1.20074" stroke-dasharray="4.8 7.2"/>
<line opacity="0.1" x1="6" y1="152.164" x2="419.984" y2="152.164" stroke="#1D2125" stroke-width="1.20074" stroke-dasharray="4.8 7.2"/>
<line opacity="0.1" x1="6" y1="189.855" x2="419.984" y2="189.855" stroke="#1D2125" stroke-width="1.20074" stroke-dasharray="4.8 7.2"/>
<path d="M420 134.878C409.699 129.023 399.658 123.569 389.061 123.569C380.793 123.569 372.863 126.889 364.885 130.229C358.92 132.727 352.928 135.235 346.747 136.377C333.33 139.045 318.881 133.708 305.465 126.238C291.016 118.767 276.567 108.628 263.151 93.686C259.943 90.3694 256.787 86.8162 253.659 83.2947C242.695 70.9518 232.078 59 220.837 59C212.708 59 204.201 66.2471 195.544 73.6214C189.913 78.419 184.217 83.2705 178.522 86.2152C170.18 90.8603 161.439 90.7606 152.795 90.6619C147.537 90.6019 142.315 90.5423 137.24 91.5515C123.904 93.5217 111.446 102.312 98.2453 111.626C97.1444 112.403 96.0384 113.184 94.9263 113.964C81.5096 123.569 67.0609 133.708 52.6122 139.045C39.1955 143.847 24.7468 143.847 11.3301 131.04C9.53415 129.515 7.75415 127.791 6 125.919" stroke="#ED9013" stroke-width="5" stroke-linecap="round"/>
<path d="M420 132.809C419.099 132.68 418.201 132.524 417.307 132.34C409.152 130.786 401.246 127.369 393.376 123.967C382.848 119.418 372.385 114.896 361.477 114.896C346.852 114.896 333.028 123.023 318.777 131.403C314.451 133.946 310.086 136.513 305.646 138.882C287.944 149.058 268.88 156.327 251.178 149.058C233.78 143.088 217.516 125.617 200.317 107.14C198.67 105.37 197.014 103.591 195.347 101.812C193.929 100.298 192.518 98.7836 191.113 97.2761C173.641 78.5242 157.162 60.8381 139.517 57.4742C131.359 55.7993 122.911 57.8295 114.441 59.8652C104.532 62.2466 94.5921 64.6354 85.0481 61.1085C75.2043 57.3554 65.3605 48.3698 55.7042 39.5553C46.6595 31.2992 37.7793 23.1931 29.2176 19.6777C21.3089 16.9639 13.6345 17.7526 6 20.5391" stroke="#C83B53" stroke-width="5" stroke-linecap="round"/>
<path d="M6 97.184L17.5012 110.763C18.9279 112.377 20.5063 114.2 22.2207 116.18C34.3268 130.164 53.2151 151.981 73.364 163.38C94.7234 176.959 117.726 176.959 139.085 171.867C162.087 166.209 185.09 155.459 206.449 145.275C208.22 144.448 209.98 143.62 211.733 142.797C232.749 132.921 252.581 123.601 273.813 121.512C281.892 120.442 290.206 120.506 298.577 120.569C312.338 120.674 326.254 120.78 339.534 115.855C348.601 112.733 357.667 107.589 366.633 102.502C380.414 94.6837 393.958 87 406.898 87C411.318 87 415.678 87.773 420 89.1343" stroke="#A82CD0" stroke-width="5" stroke-linecap="round"/>
<circle opacity="0.2" cx="139" cy="58" r="10" fill="#ED9013"/>
<circle cx="139" cy="58" r="5" fill="#ED9013"/>
<path d="M110.579 37.234C110.159 37.186 109.751 37.078 109.355 36.91C108.959 36.742 108.587 36.52 108.239 36.244C107.903 35.968 107.603 35.632 107.339 35.236C107.087 34.84 106.889 34.384 106.745 33.868L108.527 33.13C108.659 33.658 108.905 34.126 109.265 34.534C109.625 34.93 110.063 35.194 110.579 35.326V31.438L110.453 31.384C109.985 31.204 109.553 31 109.157 30.772C108.761 30.532 108.419 30.262 108.131 29.962C107.843 29.662 107.621 29.332 107.465 28.972C107.309 28.612 107.231 28.204 107.231 27.748C107.231 27.34 107.303 26.95 107.447 26.578C107.603 26.206 107.825 25.87 108.113 25.57C108.401 25.27 108.749 25.024 109.157 24.832C109.577 24.628 110.051 24.496 110.579 24.436V22.888H112.073V24.472C112.541 24.544 112.949 24.67 113.297 24.85C113.645 25.03 113.945 25.24 114.197 25.48C114.449 25.708 114.653 25.954 114.809 26.218C114.965 26.47 115.085 26.71 115.169 26.938L113.405 27.712C113.321 27.46 113.171 27.208 112.955 26.956C112.751 26.704 112.457 26.512 112.073 26.38V30.016C112.541 30.22 112.979 30.436 113.387 30.664C113.795 30.88 114.149 31.132 114.449 31.42C114.749 31.696 114.983 32.02 115.151 32.392C115.331 32.752 115.421 33.172 115.421 33.652C115.421 34.192 115.325 34.666 115.133 35.074C114.953 35.482 114.707 35.836 114.395 36.136C114.095 36.436 113.741 36.676 113.333 36.856C112.937 37.024 112.517 37.144 112.073 37.216V38.8H110.579V37.234ZM113.423 33.688C113.423 33.304 113.309 32.992 113.081 32.752C112.865 32.512 112.529 32.284 112.073 32.068V35.29C112.469 35.182 112.793 34.996 113.045 34.732C113.297 34.456 113.423 34.108 113.423 33.688ZM109.157 27.766C109.157 28.114 109.271 28.414 109.499 28.666C109.739 28.906 110.099 29.146 110.579 29.386V26.29C110.147 26.386 109.799 26.566 109.535 26.83C109.283 27.082 109.157 27.394 109.157 27.766Z" fill="#C83B53"/>
<path d="M123.856 37V27.1L121.57 28.09L120.814 26.38L124.432 24.688H125.854V37H123.856ZM128.321 37V35.11C129.017 34.426 129.659 33.784 130.247 33.184C130.499 32.932 130.751 32.674 131.003 32.41C131.267 32.146 131.513 31.9 131.741 31.672C131.969 31.432 132.179 31.216 132.371 31.024C132.563 30.82 132.713 30.658 132.821 30.538C133.049 30.274 133.247 30.04 133.415 29.836C133.583 29.632 133.721 29.434 133.829 29.242C133.937 29.05 134.015 28.858 134.063 28.666C134.123 28.474 134.153 28.258 134.153 28.018C134.153 27.802 134.105 27.592 134.009 27.388C133.925 27.184 133.799 27.004 133.631 26.848C133.463 26.68 133.253 26.548 133.001 26.452C132.761 26.344 132.479 26.29 132.155 26.29C131.843 26.29 131.567 26.344 131.327 26.452C131.099 26.548 130.901 26.68 130.733 26.848C130.565 27.004 130.427 27.178 130.319 27.37C130.211 27.55 130.133 27.73 130.085 27.91L128.267 27.172C128.351 26.884 128.495 26.578 128.699 26.254C128.903 25.93 129.167 25.63 129.491 25.354C129.815 25.078 130.199 24.85 130.643 24.67C131.099 24.49 131.615 24.4 132.191 24.4C132.803 24.4 133.355 24.496 133.847 24.688C134.339 24.88 134.759 25.138 135.107 25.462C135.455 25.786 135.719 26.164 135.899 26.596C136.091 27.028 136.187 27.49 136.187 27.982C136.187 28.366 136.127 28.738 136.007 29.098C135.899 29.458 135.749 29.806 135.557 30.142C135.377 30.466 135.167 30.772 134.927 31.06C134.699 31.348 134.465 31.612 134.225 31.852C134.165 31.912 134.075 32.002 133.955 32.122C133.835 32.242 133.691 32.386 133.523 32.554C133.367 32.71 133.193 32.878 133.001 33.058C132.809 33.25 132.617 33.442 132.425 33.634L130.967 35.092L130.985 35.164H136.331V37H128.321ZM137.919 38.566L138.945 36.982C138.705 36.91 138.489 36.766 138.297 36.55C138.105 36.334 138.009 36.058 138.009 35.722C138.009 35.338 138.141 35.008 138.405 34.732C138.681 34.456 139.011 34.318 139.395 34.318C139.779 34.318 140.109 34.456 140.385 34.732C140.661 35.008 140.799 35.338 140.799 35.722C140.799 35.962 140.751 36.178 140.655 36.37C140.559 36.562 140.439 36.766 140.295 36.982L138.837 39.16L137.919 38.566ZM148.142 37V34.57H142.382V32.986L147.98 24.688H150.158V32.698H151.706V34.57H150.158V37H148.142ZM148.142 27.658H148.034L144.632 32.698H148.142V27.658ZM157.476 37.288C157.044 37.288 156.606 37.222 156.162 37.09C155.718 36.958 155.298 36.76 154.902 36.496C154.518 36.22 154.176 35.872 153.876 35.452C153.576 35.032 153.354 34.534 153.21 33.958L155.01 33.238C155.166 33.874 155.448 34.396 155.856 34.804C156.276 35.2 156.81 35.398 157.458 35.398C157.782 35.398 158.088 35.344 158.376 35.236C158.664 35.116 158.91 34.96 159.114 34.768C159.318 34.564 159.48 34.324 159.6 34.048C159.72 33.772 159.78 33.466 159.78 33.13C159.78 32.794 159.72 32.488 159.6 32.212C159.492 31.924 159.336 31.678 159.132 31.474C158.928 31.27 158.682 31.114 158.394 31.006C158.106 30.886 157.794 30.826 157.458 30.826C157.062 30.826 156.702 30.916 156.378 31.096C156.054 31.264 155.784 31.486 155.568 31.762L153.588 30.88L154.326 24.688H161.04V26.506H156L155.55 29.71L155.658 29.746C155.922 29.542 156.228 29.368 156.576 29.224C156.924 29.08 157.35 29.008 157.854 29.008C158.37 29.008 158.862 29.11 159.33 29.314C159.81 29.506 160.23 29.782 160.59 30.142C160.95 30.502 161.238 30.934 161.454 31.438C161.67 31.942 161.778 32.5 161.778 33.112C161.778 33.712 161.67 34.27 161.454 34.786C161.238 35.29 160.938 35.728 160.554 36.1C160.17 36.472 159.714 36.766 159.186 36.982C158.67 37.186 158.1 37.288 157.476 37.288ZM168.194 29.134C168.662 29.134 169.118 29.236 169.562 29.44C170.018 29.632 170.42 29.902 170.768 30.25C171.128 30.598 171.416 31.018 171.632 31.51C171.86 32.002 171.974 32.536 171.974 33.112C171.974 33.688 171.854 34.234 171.614 34.75C171.386 35.254 171.074 35.698 170.678 36.082C170.294 36.454 169.844 36.748 169.328 36.964C168.812 37.18 168.272 37.288 167.708 37.288C167.048 37.288 166.448 37.174 165.908 36.946C165.38 36.706 164.924 36.394 164.54 36.01C164.168 35.614 163.88 35.164 163.676 34.66C163.472 34.144 163.37 33.616 163.37 33.076C163.37 32.296 163.526 31.582 163.838 30.934C164.162 30.274 164.558 29.602 165.026 28.918L168.122 24.364L169.706 25.444L166.916 29.35L166.988 29.404C167.144 29.32 167.318 29.254 167.51 29.206C167.714 29.158 167.942 29.134 168.194 29.134ZM167.672 35.416C167.984 35.416 168.278 35.362 168.554 35.254C168.842 35.134 169.088 34.972 169.292 34.768C169.508 34.564 169.676 34.324 169.796 34.048C169.928 33.772 169.994 33.466 169.994 33.13C169.994 32.806 169.928 32.506 169.796 32.23C169.676 31.942 169.508 31.702 169.292 31.51C169.076 31.306 168.824 31.15 168.536 31.042C168.26 30.922 167.972 30.862 167.672 30.862C167.36 30.862 167.066 30.922 166.79 31.042C166.514 31.15 166.268 31.306 166.052 31.51C165.848 31.702 165.68 31.942 165.548 32.23C165.428 32.506 165.368 32.806 165.368 33.13C165.368 33.466 165.428 33.772 165.548 34.048C165.68 34.324 165.848 34.564 166.052 34.768C166.268 34.972 166.514 35.134 166.79 35.254C167.066 35.362 167.36 35.416 167.672 35.416Z" fill="black"/>
<path d="M6.5148 213L4.8468 208.032L3.2028 213H2.4588L0.514797 207.12H1.2948L2.8428 211.956H2.8548L4.4628 207.12H5.2788L6.8988 211.932H6.9108L8.4468 207.12H9.2028L7.2588 213H6.5148ZM15.0067 211.608C14.9027 211.824 14.7707 212.028 14.6107 212.22C14.4507 212.412 14.2627 212.58 14.0467 212.724C13.8387 212.868 13.5987 212.98 13.3267 213.06C13.0547 213.148 12.7547 213.192 12.4267 213.192C12.0027 213.192 11.6107 213.116 11.2507 212.964C10.8907 212.804 10.5787 212.584 10.3147 212.304C10.0587 212.024 9.85867 211.696 9.71467 211.32C9.57067 210.936 9.49867 210.516 9.49867 210.06C9.49867 209.636 9.56267 209.236 9.69067 208.86C9.82667 208.476 10.0187 208.144 10.2667 207.864C10.5147 207.576 10.8147 207.348 11.1667 207.18C11.5187 207.012 11.9147 206.928 12.3547 206.928C12.7787 206.928 13.1587 207.004 13.4947 207.156C13.8387 207.3 14.1307 207.508 14.3707 207.78C14.6107 208.044 14.7947 208.364 14.9227 208.74C15.0587 209.116 15.1267 209.532 15.1267 209.988C15.1267 210.012 15.1267 210.036 15.1267 210.06C15.1187 210.084 15.1147 210.104 15.1147 210.12V210.192H10.2787C10.2867 210.6 10.3587 210.948 10.4947 211.236C10.6307 211.524 10.8027 211.764 11.0107 211.956C11.2187 212.14 11.4507 212.276 11.7067 212.364C11.9627 212.452 12.2107 212.496 12.4507 212.496C12.9467 212.496 13.3387 212.384 13.6267 212.16C13.9147 211.928 14.1547 211.636 14.3467 211.284L15.0067 211.608ZM14.3227 209.544C14.3147 209.352 14.2747 209.144 14.2027 208.92C14.1307 208.696 14.0187 208.488 13.8667 208.296C13.7147 208.104 13.5107 207.944 13.2547 207.816C13.0067 207.688 12.6987 207.624 12.3307 207.624C12.0907 207.624 11.8587 207.668 11.6347 207.756C11.4107 207.836 11.2067 207.956 11.0227 208.116C10.8467 208.276 10.6947 208.476 10.5667 208.716C10.4467 208.956 10.3667 209.232 10.3267 209.544H14.3227ZM21.4051 211.608C21.3011 211.824 21.1691 212.028 21.0091 212.22C20.8491 212.412 20.6611 212.58 20.4451 212.724C20.2371 212.868 19.9971 212.98 19.7251 213.06C19.4531 213.148 19.1531 213.192 18.8251 213.192C18.4011 213.192 18.0091 213.116 17.6491 212.964C17.2891 212.804 16.9771 212.584 16.7131 212.304C16.4571 212.024 16.2571 211.696 16.1131 211.32C15.9691 210.936 15.8971 210.516 15.8971 210.06C15.8971 209.636 15.9611 209.236 16.0891 208.86C16.2251 208.476 16.4171 208.144 16.6651 207.864C16.9131 207.576 17.2131 207.348 17.5651 207.18C17.9171 207.012 18.3131 206.928 18.7531 206.928C19.1771 206.928 19.5571 207.004 19.8931 207.156C20.2371 207.3 20.5291 207.508 20.7691 207.78C21.0091 208.044 21.1931 208.364 21.3211 208.74C21.4571 209.116 21.5251 209.532 21.5251 209.988C21.5251 210.012 21.5251 210.036 21.5251 210.06C21.5171 210.084 21.5131 210.104 21.5131 210.12V210.192H16.6771C16.6851 210.6 16.7571 210.948 16.8931 211.236C17.0291 211.524 17.2011 211.764 17.4091 211.956C17.6171 212.14 17.8491 212.276 18.1051 212.364C18.3611 212.452 18.6091 212.496 18.8491 212.496C19.3451 212.496 19.7371 212.384 20.0251 212.16C20.3131 211.928 20.5531 211.636 20.7451 211.284L21.4051 211.608ZM20.7211 209.544C20.7131 209.352 20.6731 209.144 20.6011 208.92C20.5291 208.696 20.4171 208.488 20.2651 208.296C20.1131 208.104 19.9091 207.944 19.6531 207.816C19.4051 207.688 19.0971 207.624 18.7291 207.624C18.4891 207.624 18.2571 207.668 18.0331 207.756C17.8091 207.836 17.6051 207.956 17.4211 208.116C17.2451 208.276 17.0931 208.476 16.9651 208.716C16.8451 208.956 16.7651 209.232 16.7251 209.544H20.7211ZM22.597 204.408H23.365V210.108L26.341 207.12H27.313V207.168L25.105 209.388L27.529 212.952V213H26.629L24.553 209.928L23.365 211.116V213H22.597V204.408ZM32.7022 213V205.74L31.1422 206.484L30.8422 205.848L32.9782 204.792H33.4702V213H32.7022Z" fill="#5E6265"/>
<path d="M99.048 213L97.38 208.032L95.736 213H94.992L93.048 207.12H93.828L95.376 211.956H95.388L96.996 207.12H97.812L99.432 211.932H99.444L100.98 207.12H101.736L99.792 213H99.048ZM107.54 211.608C107.436 211.824 107.304 212.028 107.144 212.22C106.984 212.412 106.796 212.58 106.58 212.724C106.372 212.868 106.132 212.98 105.86 213.06C105.588 213.148 105.288 213.192 104.96 213.192C104.536 213.192 104.144 213.116 103.784 212.964C103.424 212.804 103.112 212.584 102.848 212.304C102.592 212.024 102.392 211.696 102.248 211.32C102.104 210.936 102.032 210.516 102.032 210.06C102.032 209.636 102.096 209.236 102.224 208.86C102.36 208.476 102.552 208.144 102.8 207.864C103.048 207.576 103.348 207.348 103.7 207.18C104.052 207.012 104.448 206.928 104.888 206.928C105.312 206.928 105.692 207.004 106.028 207.156C106.372 207.3 106.664 207.508 106.904 207.78C107.144 208.044 107.328 208.364 107.456 208.74C107.592 209.116 107.66 209.532 107.66 209.988C107.66 210.012 107.66 210.036 107.66 210.06C107.652 210.084 107.648 210.104 107.648 210.12V210.192H102.812C102.82 210.6 102.892 210.948 103.028 211.236C103.164 211.524 103.336 211.764 103.544 211.956C103.752 212.14 103.984 212.276 104.24 212.364C104.496 212.452 104.744 212.496 104.984 212.496C105.48 212.496 105.872 212.384 106.16 212.16C106.448 211.928 106.688 211.636 106.88 211.284L107.54 211.608ZM106.856 209.544C106.848 209.352 106.808 209.144 106.736 208.92C106.664 208.696 106.552 208.488 106.4 208.296C106.248 208.104 106.044 207.944 105.788 207.816C105.54 207.688 105.232 207.624 104.864 207.624C104.624 207.624 104.392 207.668 104.168 207.756C103.944 207.836 103.74 207.956 103.556 208.116C103.38 208.276 103.228 208.476 103.1 208.716C102.98 208.956 102.9 209.232 102.86 209.544H106.856ZM113.938 211.608C113.834 211.824 113.702 212.028 113.542 212.22C113.382 212.412 113.194 212.58 112.978 212.724C112.77 212.868 112.53 212.98 112.258 213.06C111.986 213.148 111.686 213.192 111.358 213.192C110.934 213.192 110.542 213.116 110.182 212.964C109.822 212.804 109.51 212.584 109.246 212.304C108.99 212.024 108.79 211.696 108.646 211.32C108.502 210.936 108.43 210.516 108.43 210.06C108.43 209.636 108.494 209.236 108.622 208.86C108.758 208.476 108.95 208.144 109.198 207.864C109.446 207.576 109.746 207.348 110.098 207.18C110.45 207.012 110.846 206.928 111.286 206.928C111.71 206.928 112.09 207.004 112.426 207.156C112.77 207.3 113.062 207.508 113.302 207.78C113.542 208.044 113.726 208.364 113.854 208.74C113.99 209.116 114.058 209.532 114.058 209.988C114.058 210.012 114.058 210.036 114.058 210.06C114.05 210.084 114.046 210.104 114.046 210.12V210.192H109.21C109.218 210.6 109.29 210.948 109.426 211.236C109.562 211.524 109.734 211.764 109.942 211.956C110.15 212.14 110.382 212.276 110.638 212.364C110.894 212.452 111.142 212.496 111.382 212.496C111.878 212.496 112.27 212.384 112.558 212.16C112.846 211.928 113.086 211.636 113.278 211.284L113.938 211.608ZM113.254 209.544C113.246 209.352 113.206 209.144 113.134 208.92C113.062 208.696 112.95 208.488 112.798 208.296C112.646 208.104 112.442 207.944 112.186 207.816C111.938 207.688 111.63 207.624 111.262 207.624C111.022 207.624 110.79 207.668 110.566 207.756C110.342 207.836 110.138 207.956 109.954 208.116C109.778 208.276 109.626 208.476 109.498 208.716C109.378 208.956 109.298 209.232 109.258 209.544H113.254ZM115.13 204.408H115.898V210.108L118.874 207.12H119.846V207.168L117.638 209.388L120.062 212.952V213H119.162L117.086 209.928L115.898 211.116V213H115.13V204.408ZM123.375 213V212.22L124.587 211.008C124.755 210.84 124.923 210.672 125.091 210.504C125.259 210.328 125.423 210.156 125.583 209.988C125.743 209.82 125.895 209.664 126.039 209.52C126.175 209.376 126.291 209.248 126.387 209.136C126.603 208.904 126.783 208.7 126.927 208.524C127.079 208.34 127.199 208.168 127.287 208.008C127.383 207.84 127.451 207.672 127.491 207.504C127.539 207.336 127.563 207.148 127.563 206.94C127.563 206.748 127.527 206.556 127.455 206.364C127.383 206.172 127.275 206 127.131 205.848C126.987 205.696 126.807 205.572 126.591 205.476C126.375 205.38 126.119 205.332 125.823 205.332C125.559 205.332 125.327 205.376 125.127 205.464C124.927 205.552 124.759 205.664 124.623 205.8C124.487 205.936 124.375 206.084 124.287 206.244C124.207 206.396 124.151 206.54 124.119 206.676L123.411 206.388C123.459 206.22 123.543 206.032 123.663 205.824C123.783 205.616 123.939 205.424 124.131 205.248C124.331 205.064 124.571 204.912 124.851 204.792C125.139 204.664 125.475 204.6 125.859 204.6C126.243 204.6 126.587 204.664 126.891 204.792C127.203 204.92 127.463 205.092 127.671 205.308C127.887 205.524 128.051 205.772 128.163 206.052C128.283 206.332 128.343 206.624 128.343 206.928C128.343 207.208 128.303 207.472 128.223 207.72C128.151 207.96 128.051 208.192 127.923 208.416C127.795 208.632 127.647 208.84 127.479 209.04C127.319 209.24 127.151 209.432 126.975 209.616C126.903 209.688 126.811 209.78 126.699 209.892C126.587 210.012 126.463 210.14 126.327 210.276C126.191 210.412 126.047 210.556 125.895 210.708C125.743 210.868 125.595 211.02 125.451 211.164C125.107 211.508 124.743 211.876 124.359 212.268H128.439V213H123.375Z" fill="#5E6265"/>
<path d="M194.501 213L192.833 208.032L191.189 213H190.445L188.501 207.12H189.281L190.829 211.956H190.841L192.449 207.12H193.265L194.885 211.932H194.897L196.433 207.12H197.189L195.245 213H194.501ZM202.993 211.608C202.889 211.824 202.757 212.028 202.597 212.22C202.437 212.412 202.249 212.58 202.033 212.724C201.825 212.868 201.585 212.98 201.313 213.06C201.041 213.148 200.741 213.192 200.413 213.192C199.989 213.192 199.597 213.116 199.237 212.964C198.877 212.804 198.565 212.584 198.301 212.304C198.045 212.024 197.845 211.696 197.701 211.32C197.557 210.936 197.485 210.516 197.485 210.06C197.485 209.636 197.549 209.236 197.677 208.86C197.813 208.476 198.005 208.144 198.253 207.864C198.501 207.576 198.801 207.348 199.153 207.18C199.505 207.012 199.901 206.928 200.341 206.928C200.765 206.928 201.145 207.004 201.481 207.156C201.825 207.3 202.117 207.508 202.357 207.78C202.597 208.044 202.781 208.364 202.909 208.74C203.045 209.116 203.113 209.532 203.113 209.988C203.113 210.012 203.113 210.036 203.113 210.06C203.105 210.084 203.101 210.104 203.101 210.12V210.192H198.265C198.273 210.6 198.345 210.948 198.481 211.236C198.617 211.524 198.789 211.764 198.997 211.956C199.205 212.14 199.437 212.276 199.693 212.364C199.949 212.452 200.197 212.496 200.437 212.496C200.933 212.496 201.325 212.384 201.613 212.16C201.901 211.928 202.141 211.636 202.333 211.284L202.993 211.608ZM202.309 209.544C202.301 209.352 202.261 209.144 202.189 208.92C202.117 208.696 202.005 208.488 201.853 208.296C201.701 208.104 201.497 207.944 201.241 207.816C200.993 207.688 200.685 207.624 200.317 207.624C200.077 207.624 199.845 207.668 199.621 207.756C199.397 207.836 199.193 207.956 199.009 208.116C198.833 208.276 198.681 208.476 198.553 208.716C198.433 208.956 198.353 209.232 198.313 209.544H202.309ZM209.391 211.608C209.287 211.824 209.155 212.028 208.995 212.22C208.835 212.412 208.647 212.58 208.431 212.724C208.223 212.868 207.983 212.98 207.711 213.06C207.439 213.148 207.139 213.192 206.811 213.192C206.387 213.192 205.995 213.116 205.635 212.964C205.275 212.804 204.963 212.584 204.699 212.304C204.443 212.024 204.243 211.696 204.099 211.32C203.955 210.936 203.883 210.516 203.883 210.06C203.883 209.636 203.947 209.236 204.075 208.86C204.211 208.476 204.403 208.144 204.651 207.864C204.899 207.576 205.199 207.348 205.551 207.18C205.903 207.012 206.299 206.928 206.739 206.928C207.163 206.928 207.543 207.004 207.879 207.156C208.223 207.3 208.515 207.508 208.755 207.78C208.995 208.044 209.179 208.364 209.307 208.74C209.443 209.116 209.511 209.532 209.511 209.988C209.511 210.012 209.511 210.036 209.511 210.06C209.503 210.084 209.499 210.104 209.499 210.12V210.192H204.663C204.671 210.6 204.743 210.948 204.879 211.236C205.015 211.524 205.187 211.764 205.395 211.956C205.603 212.14 205.835 212.276 206.091 212.364C206.347 212.452 206.595 212.496 206.835 212.496C207.331 212.496 207.723 212.384 208.011 212.16C208.299 211.928 208.539 211.636 208.731 211.284L209.391 211.608ZM208.707 209.544C208.699 209.352 208.659 209.144 208.587 208.92C208.515 208.696 208.403 208.488 208.251 208.296C208.099 208.104 207.895 207.944 207.639 207.816C207.391 207.688 207.083 207.624 206.715 207.624C206.475 207.624 206.243 207.668 206.019 207.756C205.795 207.836 205.591 207.956 205.407 208.116C205.231 208.276 205.079 208.476 204.951 208.716C204.831 208.956 204.751 209.232 204.711 209.544H208.707ZM210.583 204.408H211.351V210.108L214.327 207.12H215.299V207.168L213.091 209.388L215.515 212.952V213H214.615L212.539 209.928L211.351 211.116V213H210.583V204.408ZM221.361 213.192C221.113 213.192 220.857 213.152 220.593 213.072C220.329 213 220.077 212.884 219.837 212.724C219.605 212.556 219.393 212.344 219.201 212.088C219.017 211.824 218.877 211.512 218.781 211.152L219.477 210.864C219.613 211.368 219.849 211.76 220.185 212.04C220.521 212.32 220.913 212.46 221.361 212.46C221.633 212.46 221.885 212.416 222.117 212.328C222.349 212.24 222.549 212.12 222.717 211.968C222.893 211.808 223.029 211.62 223.125 211.404C223.221 211.188 223.269 210.952 223.269 210.696C223.269 210.456 223.217 210.236 223.113 210.036C223.017 209.828 222.881 209.648 222.705 209.496C222.537 209.344 222.337 209.228 222.105 209.148C221.873 209.06 221.621 209.016 221.349 209.016H220.653V208.296H221.337C221.801 208.296 222.189 208.164 222.501 207.9C222.821 207.636 222.981 207.268 222.981 206.796C222.981 206.588 222.937 206.396 222.849 206.22C222.769 206.036 222.653 205.88 222.501 205.752C222.357 205.616 222.185 205.512 221.985 205.44C221.785 205.368 221.569 205.332 221.337 205.332C221.089 205.332 220.869 205.372 220.677 205.452C220.493 205.524 220.333 205.62 220.197 205.74C220.061 205.86 219.949 205.996 219.861 206.148C219.781 206.3 219.717 206.448 219.669 206.592L218.973 206.292C219.029 206.108 219.117 205.916 219.237 205.716C219.365 205.516 219.525 205.336 219.717 205.176C219.917 205.008 220.149 204.872 220.413 204.768C220.685 204.656 220.993 204.6 221.337 204.6C221.689 204.6 222.013 204.656 222.309 204.768C222.605 204.88 222.861 205.032 223.077 205.224C223.293 205.416 223.461 205.648 223.581 205.92C223.701 206.184 223.761 206.472 223.761 206.784C223.761 207.024 223.725 207.244 223.653 207.444C223.589 207.636 223.501 207.808 223.389 207.96C223.277 208.104 223.149 208.232 223.005 208.344C222.861 208.448 222.713 208.536 222.561 208.608V208.656C222.969 208.808 223.317 209.056 223.605 209.4C223.901 209.744 224.049 210.172 224.049 210.684C224.049 211.052 223.977 211.392 223.833 211.704C223.697 212.008 223.505 212.272 223.257 212.496C223.017 212.712 222.733 212.88 222.405 213C222.077 213.128 221.729 213.192 221.361 213.192Z" fill="#5E6265"/>
<path d="M290.144 213L288.476 208.032L286.832 213H286.088L284.144 207.12H284.924L286.472 211.956H286.484L288.092 207.12H288.908L290.528 211.932H290.54L292.076 207.12H292.832L290.888 213H290.144ZM298.636 211.608C298.532 211.824 298.4 212.028 298.24 212.22C298.08 212.412 297.892 212.58 297.676 212.724C297.468 212.868 297.228 212.98 296.956 213.06C296.684 213.148 296.384 213.192 296.056 213.192C295.632 213.192 295.24 213.116 294.88 212.964C294.52 212.804 294.208 212.584 293.944 212.304C293.688 212.024 293.488 211.696 293.344 211.32C293.2 210.936 293.128 210.516 293.128 210.06C293.128 209.636 293.192 209.236 293.32 208.86C293.456 208.476 293.648 208.144 293.896 207.864C294.144 207.576 294.444 207.348 294.796 207.18C295.148 207.012 295.544 206.928 295.984 206.928C296.408 206.928 296.788 207.004 297.124 207.156C297.468 207.3 297.76 207.508 298 207.78C298.24 208.044 298.424 208.364 298.552 208.74C298.688 209.116 298.756 209.532 298.756 209.988C298.756 210.012 298.756 210.036 298.756 210.06C298.748 210.084 298.744 210.104 298.744 210.12V210.192H293.908C293.916 210.6 293.988 210.948 294.124 211.236C294.26 211.524 294.432 211.764 294.64 211.956C294.848 212.14 295.08 212.276 295.336 212.364C295.592 212.452 295.84 212.496 296.08 212.496C296.576 212.496 296.968 212.384 297.256 212.16C297.544 211.928 297.784 211.636 297.976 211.284L298.636 211.608ZM297.952 209.544C297.944 209.352 297.904 209.144 297.832 208.92C297.76 208.696 297.648 208.488 297.496 208.296C297.344 208.104 297.14 207.944 296.884 207.816C296.636 207.688 296.328 207.624 295.96 207.624C295.72 207.624 295.488 207.668 295.264 207.756C295.04 207.836 294.836 207.956 294.652 208.116C294.476 208.276 294.324 208.476 294.196 208.716C294.076 208.956 293.996 209.232 293.956 209.544H297.952ZM305.034 211.608C304.93 211.824 304.798 212.028 304.638 212.22C304.478 212.412 304.29 212.58 304.074 212.724C303.866 212.868 303.626 212.98 303.354 213.06C303.082 213.148 302.782 213.192 302.454 213.192C302.03 213.192 301.638 213.116 301.278 212.964C300.918 212.804 300.606 212.584 300.342 212.304C300.086 212.024 299.886 211.696 299.742 211.32C299.598 210.936 299.526 210.516 299.526 210.06C299.526 209.636 299.59 209.236 299.718 208.86C299.854 208.476 300.046 208.144 300.294 207.864C300.542 207.576 300.842 207.348 301.194 207.18C301.546 207.012 301.942 206.928 302.382 206.928C302.806 206.928 303.186 207.004 303.522 207.156C303.866 207.3 304.158 207.508 304.398 207.78C304.638 208.044 304.822 208.364 304.95 208.74C305.086 209.116 305.154 209.532 305.154 209.988C305.154 210.012 305.154 210.036 305.154 210.06C305.146 210.084 305.142 210.104 305.142 210.12V210.192H300.306C300.314 210.6 300.386 210.948 300.522 211.236C300.658 211.524 300.83 211.764 301.038 211.956C301.246 212.14 301.478 212.276 301.734 212.364C301.99 212.452 302.238 212.496 302.478 212.496C302.974 212.496 303.366 212.384 303.654 212.16C303.942 211.928 304.182 211.636 304.374 211.284L305.034 211.608ZM304.35 209.544C304.342 209.352 304.302 209.144 304.23 208.92C304.158 208.696 304.046 208.488 303.894 208.296C303.742 208.104 303.538 207.944 303.282 207.816C303.034 207.688 302.726 207.624 302.358 207.624C302.118 207.624 301.886 207.668 301.662 207.756C301.438 207.836 301.234 207.956 301.05 208.116C300.874 208.276 300.722 208.476 300.594 208.716C300.474 208.956 300.394 209.232 300.354 209.544H304.35ZM306.226 204.408H306.994V210.108L309.97 207.12H310.942V207.168L308.734 209.388L311.158 212.952V213H310.258L308.182 209.928L306.994 211.116V213H306.226V204.408ZM318.515 213V211.116H314.471V210.588L318.419 204.792H319.283V210.396H320.339V211.116H319.283V213H318.515ZM318.515 205.92H318.467L315.407 210.396H318.515V205.92Z" fill="#5E6265"/>
<path d="M385.319 213L383.651 208.032L382.007 213H381.263L379.319 207.12H380.099L381.647 211.956H381.659L383.267 207.12H384.083L385.703 211.932H385.715L387.251 207.12H388.007L386.063 213H385.319ZM393.811 211.608C393.707 211.824 393.575 212.028 393.415 212.22C393.255 212.412 393.067 212.58 392.851 212.724C392.643 212.868 392.403 212.98 392.131 213.06C391.859 213.148 391.559 213.192 391.231 213.192C390.807 213.192 390.415 213.116 390.055 212.964C389.695 212.804 389.383 212.584 389.119 212.304C388.863 212.024 388.663 211.696 388.519 211.32C388.375 210.936 388.303 210.516 388.303 210.06C388.303 209.636 388.367 209.236 388.495 208.86C388.631 208.476 388.823 208.144 389.071 207.864C389.319 207.576 389.619 207.348 389.971 207.18C390.323 207.012 390.719 206.928 391.159 206.928C391.583 206.928 391.963 207.004 392.299 207.156C392.643 207.3 392.935 207.508 393.175 207.78C393.415 208.044 393.599 208.364 393.727 208.74C393.863 209.116 393.931 209.532 393.931 209.988C393.931 210.012 393.931 210.036 393.931 210.06C393.923 210.084 393.919 210.104 393.919 210.12V210.192H389.083C389.091 210.6 389.163 210.948 389.299 211.236C389.435 211.524 389.607 211.764 389.815 211.956C390.023 212.14 390.255 212.276 390.511 212.364C390.767 212.452 391.015 212.496 391.255 212.496C391.751 212.496 392.143 212.384 392.431 212.16C392.719 211.928 392.959 211.636 393.151 211.284L393.811 211.608ZM393.127 209.544C393.119 209.352 393.079 209.144 393.007 208.92C392.935 208.696 392.823 208.488 392.671 208.296C392.519 208.104 392.315 207.944 392.059 207.816C391.811 207.688 391.503 207.624 391.135 207.624C390.895 207.624 390.663 207.668 390.439 207.756C390.215 207.836 390.011 207.956 389.827 208.116C389.651 208.276 389.499 208.476 389.371 208.716C389.251 208.956 389.171 209.232 389.131 209.544H393.127ZM400.21 211.608C400.106 211.824 399.974 212.028 399.814 212.22C399.654 212.412 399.466 212.58 399.25 212.724C399.042 212.868 398.802 212.98 398.53 213.06C398.258 213.148 397.958 213.192 397.63 213.192C397.206 213.192 396.814 213.116 396.454 212.964C396.094 212.804 395.782 212.584 395.518 212.304C395.262 212.024 395.062 211.696 394.918 211.32C394.774 210.936 394.702 210.516 394.702 210.06C394.702 209.636 394.766 209.236 394.894 208.86C395.03 208.476 395.222 208.144 395.47 207.864C395.718 207.576 396.018 207.348 396.37 207.18C396.722 207.012 397.118 206.928 397.558 206.928C397.982 206.928 398.362 207.004 398.698 207.156C399.042 207.3 399.334 207.508 399.574 207.78C399.814 208.044 399.998 208.364 400.126 208.74C400.262 209.116 400.33 209.532 400.33 209.988C400.33 210.012 400.33 210.036 400.33 210.06C400.322 210.084 400.318 210.104 400.318 210.12V210.192H395.482C395.49 210.6 395.562 210.948 395.698 211.236C395.834 211.524 396.006 211.764 396.214 211.956C396.422 212.14 396.654 212.276 396.91 212.364C397.166 212.452 397.414 212.496 397.654 212.496C398.15 212.496 398.542 212.384 398.83 212.16C399.118 211.928 399.358 211.636 399.55 211.284L400.21 211.608ZM399.526 209.544C399.518 209.352 399.478 209.144 399.406 208.92C399.334 208.696 399.222 208.488 399.07 208.296C398.918 208.104 398.714 207.944 398.458 207.816C398.21 207.688 397.902 207.624 397.534 207.624C397.294 207.624 397.062 207.668 396.838 207.756C396.614 207.836 396.41 207.956 396.226 208.116C396.05 208.276 395.898 208.476 395.77 208.716C395.65 208.956 395.57 209.232 395.53 209.544H399.526ZM401.402 204.408H402.17V210.108L405.146 207.12H406.118V207.168L403.91 209.388L406.334 212.952V213H405.434L403.358 209.928L402.17 211.116V213H401.402V204.408ZM412.335 213.192C412.047 213.192 411.763 213.148 411.483 213.06C411.203 212.972 410.943 212.836 410.703 212.652C410.463 212.468 410.251 212.24 410.067 211.968C409.883 211.688 409.743 211.36 409.647 210.984L410.331 210.708C410.475 211.268 410.719 211.7 411.063 212.004C411.407 212.308 411.823 212.46 412.311 212.46C412.615 212.46 412.891 212.412 413.139 212.316C413.395 212.22 413.611 212.084 413.787 211.908C413.971 211.724 414.111 211.512 414.207 211.272C414.303 211.024 414.351 210.748 414.351 210.444C414.351 210.148 414.303 209.88 414.207 209.64C414.111 209.392 413.975 209.18 413.799 209.004C413.631 208.82 413.423 208.68 413.175 208.584C412.935 208.48 412.667 208.428 412.371 208.428C412.059 208.428 411.759 208.5 411.471 208.644C411.191 208.78 410.959 208.976 410.775 209.232L409.947 208.872L410.475 204.792H414.579V205.524H411.123L410.727 208.38L410.775 208.392C410.975 208.192 411.219 208.032 411.507 207.912C411.795 207.784 412.127 207.72 412.503 207.72C412.863 207.72 413.199 207.788 413.511 207.924C413.831 208.06 414.107 208.248 414.339 208.488C414.579 208.728 414.767 209.016 414.903 209.352C415.047 209.68 415.119 210.04 415.119 210.432C415.119 210.816 415.051 211.176 414.915 211.512C414.779 211.848 414.587 212.14 414.339 212.388C414.099 212.636 413.807 212.832 413.463 212.976C413.119 213.12 412.743 213.192 412.335 213.192Z" fill="#5E6265"/>
<path d="M128 9.16V16H127.08V10.3L125.75 10.88L125.4 10.1L127.41 9.16H128ZM133.408 14.56V16H132.488V14.56H129.238V13.86L132.408 9.16H133.408V13.7H134.288V14.56H133.408ZM130.278 13.7H132.488V10.51H132.448L130.278 13.7ZM135.597 17.12L135.167 16.84L135.707 16C135.567 15.9733 135.447 15.9033 135.347 15.79C135.253 15.6767 135.207 15.54 135.207 15.38C135.207 15.1867 135.273 15.0267 135.407 14.9C135.54 14.7667 135.7 14.7 135.887 14.7C136.08 14.7 136.24 14.7667 136.367 14.9C136.5 15.0267 136.567 15.1867 136.567 15.38C136.567 15.56 136.5 15.7567 136.367 15.97L135.597 17.12ZM144.585 12.42C144.585 13.48 144.232 14.3667 143.525 15.08C142.812 15.8 141.939 16.16 140.905 16.16C139.865 16.16 138.992 15.8 138.285 15.08C137.579 14.3667 137.225 13.48 137.225 12.42C137.225 11.36 137.579 10.4733 138.285 9.76C138.992 9.04 139.865 8.68 140.905 8.68C141.945 8.68 142.819 9.04333 143.525 9.77C144.232 10.4833 144.585 11.3667 144.585 12.42ZM138.165 12.42C138.165 13.2467 138.425 13.93 138.945 14.47C139.472 15.01 140.125 15.28 140.905 15.28C141.685 15.28 142.335 15.01 142.855 14.47C143.382 13.9367 143.645 13.2533 143.645 12.42C143.645 11.5867 143.382 10.9033 142.855 10.37C142.335 9.83 141.685 9.56 140.905 9.56C140.125 9.56 139.472 9.83 138.945 10.37C138.425 10.91 138.165 11.5933 138.165 12.42ZM147.751 16.16C147.025 16.16 146.421 15.9133 145.941 15.42C145.468 14.9133 145.231 14.29 145.231 13.55C145.231 12.7967 145.468 12.1733 145.941 11.68C146.421 11.1867 147.025 10.94 147.751 10.94C148.251 10.94 148.688 11.0667 149.061 11.32C149.435 11.5667 149.715 11.91 149.901 12.35L149.061 12.7C148.801 12.0867 148.345 11.78 147.691 11.78C147.271 11.78 146.908 11.95 146.601 12.29C146.301 12.63 146.151 13.05 146.151 13.55C146.151 14.05 146.301 14.47 146.601 14.81C146.908 15.15 147.271 15.32 147.691 15.32C148.365 15.32 148.838 15.0133 149.111 14.4L149.931 14.75C149.751 15.19 149.468 15.5367 149.081 15.79C148.701 16.0367 148.258 16.16 147.751 16.16ZM152.627 16.08C152.227 16.08 151.894 15.9567 151.627 15.71C151.367 15.4633 151.234 15.12 151.227 14.68V11.94H150.367V11.1H151.227V9.6H152.147V11.1H153.347V11.94H152.147V14.38C152.147 14.7067 152.21 14.93 152.337 15.05C152.464 15.1633 152.607 15.22 152.767 15.22C152.84 15.22 152.91 15.2133 152.977 15.2C153.05 15.18 153.117 15.1567 153.177 15.13L153.467 15.95C153.227 16.0367 152.947 16.08 152.627 16.08Z" fill="#979797"/>
</svg>
