<svg width="420" height="347" viewBox="0 0 420 347" fill="none" xmlns="http://www.w3.org/2000/svg">
<rect x="1" width="414" height="347" fill="white"/>
<line opacity="0.1" x1="6" y1="142.4" x2="419.984" y2="142.4" stroke="#1D2125" stroke-width="1.20074" stroke-dasharray="4.8 7.2"/>
<line opacity="0.1" x1="6" y1="180.091" x2="419.984" y2="180.091" stroke="#1D2125" stroke-width="1.20074" stroke-dasharray="4.8 7.2"/>
<line opacity="0.1" x1="6" y1="217.782" x2="419.984" y2="217.782" stroke="#1D2125" stroke-width="1.20074" stroke-dasharray="4.8 7.2"/>
<line opacity="0.1" x1="6" y1="255.473" x2="419.984" y2="255.473" stroke="#1D2125" stroke-width="1.20074" stroke-dasharray="4.8 7.2"/>
<line opacity="0.1" x1="6" y1="293.164" x2="419.984" y2="293.164" stroke="#1D2125" stroke-width="1.20074" stroke-dasharray="4.8 7.2"/>
<path d="M6.5148 316.309L4.8468 311.341L3.2028 316.309H2.4588L0.514797 310.429H1.2948L2.8428 315.265H2.8548L4.4628 310.429H5.2788L6.8988 315.241H6.9108L8.4468 310.429H9.2028L7.2588 316.309H6.5148ZM15.0067 314.917C14.9027 315.133 14.7707 315.337 14.6107 315.529C14.4507 315.721 14.2627 315.889 14.0467 316.033C13.8387 316.177 13.5987 316.289 13.3267 316.369C13.0547 316.457 12.7547 316.501 12.4267 316.501C12.0027 316.501 11.6107 316.425 11.2507 316.273C10.8907 316.113 10.5787 315.893 10.3147 315.613C10.0587 315.333 9.85867 315.005 9.71467 314.629C9.57067 314.245 9.49867 313.825 9.49867 313.369C9.49867 312.945 9.56267 312.545 9.69067 312.169C9.82667 311.785 10.0187 311.453 10.2667 311.173C10.5147 310.885 10.8147 310.657 11.1667 310.489C11.5187 310.321 11.9147 310.237 12.3547 310.237C12.7787 310.237 13.1587 310.313 13.4947 310.465C13.8387 310.609 14.1307 310.817 14.3707 311.089C14.6107 311.353 14.7947 311.673 14.9227 312.049C15.0587 312.425 15.1267 312.841 15.1267 313.297C15.1267 313.321 15.1267 313.345 15.1267 313.369C15.1187 313.393 15.1147 313.413 15.1147 313.429V313.501H10.2787C10.2867 313.909 10.3587 314.257 10.4947 314.545C10.6307 314.833 10.8027 315.073 11.0107 315.265C11.2187 315.449 11.4507 315.585 11.7067 315.673C11.9627 315.761 12.2107 315.805 12.4507 315.805C12.9467 315.805 13.3387 315.693 13.6267 315.469C13.9147 315.237 14.1547 314.945 14.3467 314.593L15.0067 314.917ZM14.3227 312.853C14.3147 312.661 14.2747 312.453 14.2027 312.229C14.1307 312.005 14.0187 311.797 13.8667 311.605C13.7147 311.413 13.5107 311.253 13.2547 311.125C13.0067 310.997 12.6987 310.933 12.3307 310.933C12.0907 310.933 11.8587 310.977 11.6347 311.065C11.4107 311.145 11.2067 311.265 11.0227 311.425C10.8467 311.585 10.6947 311.785 10.5667 312.025C10.4467 312.265 10.3667 312.541 10.3267 312.853H14.3227ZM21.4051 314.917C21.3011 315.133 21.1691 315.337 21.0091 315.529C20.8491 315.721 20.6611 315.889 20.4451 316.033C20.2371 316.177 19.9971 316.289 19.7251 316.369C19.4531 316.457 19.1531 316.501 18.8251 316.501C18.4011 316.501 18.0091 316.425 17.6491 316.273C17.2891 316.113 16.9771 315.893 16.7131 315.613C16.4571 315.333 16.2571 315.005 16.1131 314.629C15.9691 314.245 15.8971 313.825 15.8971 313.369C15.8971 312.945 15.9611 312.545 16.0891 312.169C16.2251 311.785 16.4171 311.453 16.6651 311.173C16.9131 310.885 17.2131 310.657 17.5651 310.489C17.9171 310.321 18.3131 310.237 18.7531 310.237C19.1771 310.237 19.5571 310.313 19.8931 310.465C20.2371 310.609 20.5291 310.817 20.7691 311.089C21.0091 311.353 21.1931 311.673 21.3211 312.049C21.4571 312.425 21.5251 312.841 21.5251 313.297C21.5251 313.321 21.5251 313.345 21.5251 313.369C21.5171 313.393 21.5131 313.413 21.5131 313.429V313.501H16.6771C16.6851 313.909 16.7571 314.257 16.8931 314.545C17.0291 314.833 17.2011 315.073 17.4091 315.265C17.6171 315.449 17.8491 315.585 18.1051 315.673C18.3611 315.761 18.6091 315.805 18.8491 315.805C19.3451 315.805 19.7371 315.693 20.0251 315.469C20.3131 315.237 20.5531 314.945 20.7451 314.593L21.4051 314.917ZM20.7211 312.853C20.7131 312.661 20.6731 312.453 20.6011 312.229C20.5291 312.005 20.4171 311.797 20.2651 311.605C20.1131 311.413 19.9091 311.253 19.6531 311.125C19.4051 310.997 19.0971 310.933 18.7291 310.933C18.4891 310.933 18.2571 310.977 18.0331 311.065C17.8091 311.145 17.6051 311.265 17.4211 311.425C17.2451 311.585 17.0931 311.785 16.9651 312.025C16.8451 312.265 16.7651 312.541 16.7251 312.853H20.7211ZM22.597 307.717H23.365V313.417L26.341 310.429H27.313V310.477L25.105 312.697L27.529 316.261V316.309H26.629L24.553 313.237L23.365 314.425V316.309H22.597V307.717ZM32.7022 316.309V309.049L31.1422 309.793L30.8422 309.157L32.9782 308.101H33.4702V316.309H32.7022Z" fill="#5E6265"/>
<path d="M99.048 316.309L97.38 311.341L95.736 316.309H94.992L93.048 310.429H93.828L95.376 315.265H95.388L96.996 310.429H97.812L99.432 315.241H99.444L100.98 310.429H101.736L99.792 316.309H99.048ZM107.54 314.917C107.436 315.133 107.304 315.337 107.144 315.529C106.984 315.721 106.796 315.889 106.58 316.033C106.372 316.177 106.132 316.289 105.86 316.369C105.588 316.457 105.288 316.501 104.96 316.501C104.536 316.501 104.144 316.425 103.784 316.273C103.424 316.113 103.112 315.893 102.848 315.613C102.592 315.333 102.392 315.005 102.248 314.629C102.104 314.245 102.032 313.825 102.032 313.369C102.032 312.945 102.096 312.545 102.224 312.169C102.36 311.785 102.552 311.453 102.8 311.173C103.048 310.885 103.348 310.657 103.7 310.489C104.052 310.321 104.448 310.237 104.888 310.237C105.312 310.237 105.692 310.313 106.028 310.465C106.372 310.609 106.664 310.817 106.904 311.089C107.144 311.353 107.328 311.673 107.456 312.049C107.592 312.425 107.66 312.841 107.66 313.297C107.66 313.321 107.66 313.345 107.66 313.369C107.652 313.393 107.648 313.413 107.648 313.429V313.501H102.812C102.82 313.909 102.892 314.257 103.028 314.545C103.164 314.833 103.336 315.073 103.544 315.265C103.752 315.449 103.984 315.585 104.24 315.673C104.496 315.761 104.744 315.805 104.984 315.805C105.48 315.805 105.872 315.693 106.16 315.469C106.448 315.237 106.688 314.945 106.88 314.593L107.54 314.917ZM106.856 312.853C106.848 312.661 106.808 312.453 106.736 312.229C106.664 312.005 106.552 311.797 106.4 311.605C106.248 311.413 106.044 311.253 105.788 311.125C105.54 310.997 105.232 310.933 104.864 310.933C104.624 310.933 104.392 310.977 104.168 311.065C103.944 311.145 103.74 311.265 103.556 311.425C103.38 311.585 103.228 311.785 103.1 312.025C102.98 312.265 102.9 312.541 102.86 312.853H106.856ZM113.938 314.917C113.834 315.133 113.702 315.337 113.542 315.529C113.382 315.721 113.194 315.889 112.978 316.033C112.77 316.177 112.53 316.289 112.258 316.369C111.986 316.457 111.686 316.501 111.358 316.501C110.934 316.501 110.542 316.425 110.182 316.273C109.822 316.113 109.51 315.893 109.246 315.613C108.99 315.333 108.79 315.005 108.646 314.629C108.502 314.245 108.43 313.825 108.43 313.369C108.43 312.945 108.494 312.545 108.622 312.169C108.758 311.785 108.95 311.453 109.198 311.173C109.446 310.885 109.746 310.657 110.098 310.489C110.45 310.321 110.846 310.237 111.286 310.237C111.71 310.237 112.09 310.313 112.426 310.465C112.77 310.609 113.062 310.817 113.302 311.089C113.542 311.353 113.726 311.673 113.854 312.049C113.99 312.425 114.058 312.841 114.058 313.297C114.058 313.321 114.058 313.345 114.058 313.369C114.05 313.393 114.046 313.413 114.046 313.429V313.501H109.21C109.218 313.909 109.29 314.257 109.426 314.545C109.562 314.833 109.734 315.073 109.942 315.265C110.15 315.449 110.382 315.585 110.638 315.673C110.894 315.761 111.142 315.805 111.382 315.805C111.878 315.805 112.27 315.693 112.558 315.469C112.846 315.237 113.086 314.945 113.278 314.593L113.938 314.917ZM113.254 312.853C113.246 312.661 113.206 312.453 113.134 312.229C113.062 312.005 112.95 311.797 112.798 311.605C112.646 311.413 112.442 311.253 112.186 311.125C111.938 310.997 111.63 310.933 111.262 310.933C111.022 310.933 110.79 310.977 110.566 311.065C110.342 311.145 110.138 311.265 109.954 311.425C109.778 311.585 109.626 311.785 109.498 312.025C109.378 312.265 109.298 312.541 109.258 312.853H113.254ZM115.13 307.717H115.898V313.417L118.874 310.429H119.846V310.477L117.638 312.697L120.062 316.261V316.309H119.162L117.086 313.237L115.898 314.425V316.309H115.13V307.717ZM123.375 316.309V315.529L124.587 314.317C124.755 314.149 124.923 313.981 125.091 313.813C125.259 313.637 125.423 313.465 125.583 313.297C125.743 313.129 125.895 312.973 126.039 312.829C126.175 312.685 126.291 312.557 126.387 312.445C126.603 312.213 126.783 312.009 126.927 311.833C127.079 311.649 127.199 311.477 127.287 311.317C127.383 311.149 127.451 310.981 127.491 310.813C127.539 310.645 127.563 310.457 127.563 310.249C127.563 310.057 127.527 309.865 127.455 309.673C127.383 309.481 127.275 309.309 127.131 309.157C126.987 309.005 126.807 308.881 126.591 308.785C126.375 308.689 126.119 308.641 125.823 308.641C125.559 308.641 125.327 308.685 125.127 308.773C124.927 308.861 124.759 308.973 124.623 309.109C124.487 309.245 124.375 309.393 124.287 309.553C124.207 309.705 124.151 309.849 124.119 309.985L123.411 309.697C123.459 309.529 123.543 309.341 123.663 309.133C123.783 308.925 123.939 308.733 124.131 308.557C124.331 308.373 124.571 308.221 124.851 308.101C125.139 307.973 125.475 307.909 125.859 307.909C126.243 307.909 126.587 307.973 126.891 308.101C127.203 308.229 127.463 308.401 127.671 308.617C127.887 308.833 128.051 309.081 128.163 309.361C128.283 309.641 128.343 309.933 128.343 310.237C128.343 310.517 128.303 310.781 128.223 311.029C128.151 311.269 128.051 311.501 127.923 311.725C127.795 311.941 127.647 312.149 127.479 312.349C127.319 312.549 127.151 312.741 126.975 312.925C126.903 312.997 126.811 313.089 126.699 313.201C126.587 313.321 126.463 313.449 126.327 313.585C126.191 313.721 126.047 313.865 125.895 314.017C125.743 314.177 125.595 314.329 125.451 314.473C125.107 314.817 124.743 315.185 124.359 315.577H128.439V316.309H123.375Z" fill="#5E6265"/>
<path d="M194.501 316.309L192.833 311.341L191.189 316.309H190.445L188.501 310.429H189.281L190.829 315.265H190.841L192.449 310.429H193.265L194.885 315.241H194.897L196.433 310.429H197.189L195.245 316.309H194.501ZM202.993 314.917C202.889 315.133 202.757 315.337 202.597 315.529C202.437 315.721 202.249 315.889 202.033 316.033C201.825 316.177 201.585 316.289 201.313 316.369C201.041 316.457 200.741 316.501 200.413 316.501C199.989 316.501 199.597 316.425 199.237 316.273C198.877 316.113 198.565 315.893 198.301 315.613C198.045 315.333 197.845 315.005 197.701 314.629C197.557 314.245 197.485 313.825 197.485 313.369C197.485 312.945 197.549 312.545 197.677 312.169C197.813 311.785 198.005 311.453 198.253 311.173C198.501 310.885 198.801 310.657 199.153 310.489C199.505 310.321 199.901 310.237 200.341 310.237C200.765 310.237 201.145 310.313 201.481 310.465C201.825 310.609 202.117 310.817 202.357 311.089C202.597 311.353 202.781 311.673 202.909 312.049C203.045 312.425 203.113 312.841 203.113 313.297C203.113 313.321 203.113 313.345 203.113 313.369C203.105 313.393 203.101 313.413 203.101 313.429V313.501H198.265C198.273 313.909 198.345 314.257 198.481 314.545C198.617 314.833 198.789 315.073 198.997 315.265C199.205 315.449 199.437 315.585 199.693 315.673C199.949 315.761 200.197 315.805 200.437 315.805C200.933 315.805 201.325 315.693 201.613 315.469C201.901 315.237 202.141 314.945 202.333 314.593L202.993 314.917ZM202.309 312.853C202.301 312.661 202.261 312.453 202.189 312.229C202.117 312.005 202.005 311.797 201.853 311.605C201.701 311.413 201.497 311.253 201.241 311.125C200.993 310.997 200.685 310.933 200.317 310.933C200.077 310.933 199.845 310.977 199.621 311.065C199.397 311.145 199.193 311.265 199.009 311.425C198.833 311.585 198.681 311.785 198.553 312.025C198.433 312.265 198.353 312.541 198.313 312.853H202.309ZM209.391 314.917C209.287 315.133 209.155 315.337 208.995 315.529C208.835 315.721 208.647 315.889 208.431 316.033C208.223 316.177 207.983 316.289 207.711 316.369C207.439 316.457 207.139 316.501 206.811 316.501C206.387 316.501 205.995 316.425 205.635 316.273C205.275 316.113 204.963 315.893 204.699 315.613C204.443 315.333 204.243 315.005 204.099 314.629C203.955 314.245 203.883 313.825 203.883 313.369C203.883 312.945 203.947 312.545 204.075 312.169C204.211 311.785 204.403 311.453 204.651 311.173C204.899 310.885 205.199 310.657 205.551 310.489C205.903 310.321 206.299 310.237 206.739 310.237C207.163 310.237 207.543 310.313 207.879 310.465C208.223 310.609 208.515 310.817 208.755 311.089C208.995 311.353 209.179 311.673 209.307 312.049C209.443 312.425 209.511 312.841 209.511 313.297C209.511 313.321 209.511 313.345 209.511 313.369C209.503 313.393 209.499 313.413 209.499 313.429V313.501H204.663C204.671 313.909 204.743 314.257 204.879 314.545C205.015 314.833 205.187 315.073 205.395 315.265C205.603 315.449 205.835 315.585 206.091 315.673C206.347 315.761 206.595 315.805 206.835 315.805C207.331 315.805 207.723 315.693 208.011 315.469C208.299 315.237 208.539 314.945 208.731 314.593L209.391 314.917ZM208.707 312.853C208.699 312.661 208.659 312.453 208.587 312.229C208.515 312.005 208.403 311.797 208.251 311.605C208.099 311.413 207.895 311.253 207.639 311.125C207.391 310.997 207.083 310.933 206.715 310.933C206.475 310.933 206.243 310.977 206.019 311.065C205.795 311.145 205.591 311.265 205.407 311.425C205.231 311.585 205.079 311.785 204.951 312.025C204.831 312.265 204.751 312.541 204.711 312.853H208.707ZM210.583 307.717H211.351V313.417L214.327 310.429H215.299V310.477L213.091 312.697L215.515 316.261V316.309H214.615L212.539 313.237L211.351 314.425V316.309H210.583V307.717ZM221.361 316.501C221.113 316.501 220.857 316.461 220.593 316.381C220.329 316.309 220.077 316.193 219.837 316.033C219.605 315.865 219.393 315.653 219.201 315.397C219.017 315.133 218.877 314.821 218.781 314.461L219.477 314.173C219.613 314.677 219.849 315.069 220.185 315.349C220.521 315.629 220.913 315.769 221.361 315.769C221.633 315.769 221.885 315.725 222.117 315.637C222.349 315.549 222.549 315.429 222.717 315.277C222.893 315.117 223.029 314.929 223.125 314.713C223.221 314.497 223.269 314.261 223.269 314.005C223.269 313.765 223.217 313.545 223.113 313.345C223.017 313.137 222.881 312.957 222.705 312.805C222.537 312.653 222.337 312.537 222.105 312.457C221.873 312.369 221.621 312.325 221.349 312.325H220.653V311.605H221.337C221.801 311.605 222.189 311.473 222.501 311.209C222.821 310.945 222.981 310.577 222.981 310.105C222.981 309.897 222.937 309.705 222.849 309.529C222.769 309.345 222.653 309.189 222.501 309.061C222.357 308.925 222.185 308.821 221.985 308.749C221.785 308.677 221.569 308.641 221.337 308.641C221.089 308.641 220.869 308.681 220.677 308.761C220.493 308.833 220.333 308.929 220.197 309.049C220.061 309.169 219.949 309.305 219.861 309.457C219.781 309.609 219.717 309.757 219.669 309.901L218.973 309.601C219.029 309.417 219.117 309.225 219.237 309.025C219.365 308.825 219.525 308.645 219.717 308.485C219.917 308.317 220.149 308.181 220.413 308.077C220.685 307.965 220.993 307.909 221.337 307.909C221.689 307.909 222.013 307.965 222.309 308.077C222.605 308.189 222.861 308.341 223.077 308.533C223.293 308.725 223.461 308.957 223.581 309.229C223.701 309.493 223.761 309.781 223.761 310.093C223.761 310.333 223.725 310.553 223.653 310.753C223.589 310.945 223.501 311.117 223.389 311.269C223.277 311.413 223.149 311.541 223.005 311.653C222.861 311.757 222.713 311.845 222.561 311.917V311.965C222.969 312.117 223.317 312.365 223.605 312.709C223.901 313.053 224.049 313.481 224.049 313.993C224.049 314.361 223.977 314.701 223.833 315.013C223.697 315.317 223.505 315.581 223.257 315.805C223.017 316.021 222.733 316.189 222.405 316.309C222.077 316.437 221.729 316.501 221.361 316.501Z" fill="#5E6265"/>
<path d="M290.144 316.309L288.476 311.341L286.832 316.309H286.088L284.144 310.429H284.924L286.472 315.265H286.484L288.092 310.429H288.908L290.528 315.241H290.54L292.076 310.429H292.832L290.888 316.309H290.144ZM298.636 314.917C298.532 315.133 298.4 315.337 298.24 315.529C298.08 315.721 297.892 315.889 297.676 316.033C297.468 316.177 297.228 316.289 296.956 316.369C296.684 316.457 296.384 316.501 296.056 316.501C295.632 316.501 295.24 316.425 294.88 316.273C294.52 316.113 294.208 315.893 293.944 315.613C293.688 315.333 293.488 315.005 293.344 314.629C293.2 314.245 293.128 313.825 293.128 313.369C293.128 312.945 293.192 312.545 293.32 312.169C293.456 311.785 293.648 311.453 293.896 311.173C294.144 310.885 294.444 310.657 294.796 310.489C295.148 310.321 295.544 310.237 295.984 310.237C296.408 310.237 296.788 310.313 297.124 310.465C297.468 310.609 297.76 310.817 298 311.089C298.24 311.353 298.424 311.673 298.552 312.049C298.688 312.425 298.756 312.841 298.756 313.297C298.756 313.321 298.756 313.345 298.756 313.369C298.748 313.393 298.744 313.413 298.744 313.429V313.501H293.908C293.916 313.909 293.988 314.257 294.124 314.545C294.26 314.833 294.432 315.073 294.64 315.265C294.848 315.449 295.08 315.585 295.336 315.673C295.592 315.761 295.84 315.805 296.08 315.805C296.576 315.805 296.968 315.693 297.256 315.469C297.544 315.237 297.784 314.945 297.976 314.593L298.636 314.917ZM297.952 312.853C297.944 312.661 297.904 312.453 297.832 312.229C297.76 312.005 297.648 311.797 297.496 311.605C297.344 311.413 297.14 311.253 296.884 311.125C296.636 310.997 296.328 310.933 295.96 310.933C295.72 310.933 295.488 310.977 295.264 311.065C295.04 311.145 294.836 311.265 294.652 311.425C294.476 311.585 294.324 311.785 294.196 312.025C294.076 312.265 293.996 312.541 293.956 312.853H297.952ZM305.034 314.917C304.93 315.133 304.798 315.337 304.638 315.529C304.478 315.721 304.29 315.889 304.074 316.033C303.866 316.177 303.626 316.289 303.354 316.369C303.082 316.457 302.782 316.501 302.454 316.501C302.03 316.501 301.638 316.425 301.278 316.273C300.918 316.113 300.606 315.893 300.342 315.613C300.086 315.333 299.886 315.005 299.742 314.629C299.598 314.245 299.526 313.825 299.526 313.369C299.526 312.945 299.59 312.545 299.718 312.169C299.854 311.785 300.046 311.453 300.294 311.173C300.542 310.885 300.842 310.657 301.194 310.489C301.546 310.321 301.942 310.237 302.382 310.237C302.806 310.237 303.186 310.313 303.522 310.465C303.866 310.609 304.158 310.817 304.398 311.089C304.638 311.353 304.822 311.673 304.95 312.049C305.086 312.425 305.154 312.841 305.154 313.297C305.154 313.321 305.154 313.345 305.154 313.369C305.146 313.393 305.142 313.413 305.142 313.429V313.501H300.306C300.314 313.909 300.386 314.257 300.522 314.545C300.658 314.833 300.83 315.073 301.038 315.265C301.246 315.449 301.478 315.585 301.734 315.673C301.99 315.761 302.238 315.805 302.478 315.805C302.974 315.805 303.366 315.693 303.654 315.469C303.942 315.237 304.182 314.945 304.374 314.593L305.034 314.917ZM304.35 312.853C304.342 312.661 304.302 312.453 304.23 312.229C304.158 312.005 304.046 311.797 303.894 311.605C303.742 311.413 303.538 311.253 303.282 311.125C303.034 310.997 302.726 310.933 302.358 310.933C302.118 310.933 301.886 310.977 301.662 311.065C301.438 311.145 301.234 311.265 301.05 311.425C300.874 311.585 300.722 311.785 300.594 312.025C300.474 312.265 300.394 312.541 300.354 312.853H304.35ZM306.226 307.717H306.994V313.417L309.97 310.429H310.942V310.477L308.734 312.697L311.158 316.261V316.309H310.258L308.182 313.237L306.994 314.425V316.309H306.226V307.717ZM318.515 316.309V314.425H314.471V313.897L318.419 308.101H319.283V313.705H320.339V314.425H319.283V316.309H318.515ZM318.515 309.229H318.467L315.407 313.705H318.515V309.229Z" fill="#5E6265"/>
<path d="M385.319 316.309L383.651 311.341L382.007 316.309H381.263L379.319 310.429H380.099L381.647 315.265H381.659L383.267 310.429H384.083L385.703 315.241H385.715L387.251 310.429H388.007L386.063 316.309H385.319ZM393.811 314.917C393.707 315.133 393.575 315.337 393.415 315.529C393.255 315.721 393.067 315.889 392.851 316.033C392.643 316.177 392.403 316.289 392.131 316.369C391.859 316.457 391.559 316.501 391.231 316.501C390.807 316.501 390.415 316.425 390.055 316.273C389.695 316.113 389.383 315.893 389.119 315.613C388.863 315.333 388.663 315.005 388.519 314.629C388.375 314.245 388.303 313.825 388.303 313.369C388.303 312.945 388.367 312.545 388.495 312.169C388.631 311.785 388.823 311.453 389.071 311.173C389.319 310.885 389.619 310.657 389.971 310.489C390.323 310.321 390.719 310.237 391.159 310.237C391.583 310.237 391.963 310.313 392.299 310.465C392.643 310.609 392.935 310.817 393.175 311.089C393.415 311.353 393.599 311.673 393.727 312.049C393.863 312.425 393.931 312.841 393.931 313.297C393.931 313.321 393.931 313.345 393.931 313.369C393.923 313.393 393.919 313.413 393.919 313.429V313.501H389.083C389.091 313.909 389.163 314.257 389.299 314.545C389.435 314.833 389.607 315.073 389.815 315.265C390.023 315.449 390.255 315.585 390.511 315.673C390.767 315.761 391.015 315.805 391.255 315.805C391.751 315.805 392.143 315.693 392.431 315.469C392.719 315.237 392.959 314.945 393.151 314.593L393.811 314.917ZM393.127 312.853C393.119 312.661 393.079 312.453 393.007 312.229C392.935 312.005 392.823 311.797 392.671 311.605C392.519 311.413 392.315 311.253 392.059 311.125C391.811 310.997 391.503 310.933 391.135 310.933C390.895 310.933 390.663 310.977 390.439 311.065C390.215 311.145 390.011 311.265 389.827 311.425C389.651 311.585 389.499 311.785 389.371 312.025C389.251 312.265 389.171 312.541 389.131 312.853H393.127ZM400.21 314.917C400.106 315.133 399.974 315.337 399.814 315.529C399.654 315.721 399.466 315.889 399.25 316.033C399.042 316.177 398.802 316.289 398.53 316.369C398.258 316.457 397.958 316.501 397.63 316.501C397.206 316.501 396.814 316.425 396.454 316.273C396.094 316.113 395.782 315.893 395.518 315.613C395.262 315.333 395.062 315.005 394.918 314.629C394.774 314.245 394.702 313.825 394.702 313.369C394.702 312.945 394.766 312.545 394.894 312.169C395.03 311.785 395.222 311.453 395.47 311.173C395.718 310.885 396.018 310.657 396.37 310.489C396.722 310.321 397.118 310.237 397.558 310.237C397.982 310.237 398.362 310.313 398.698 310.465C399.042 310.609 399.334 310.817 399.574 311.089C399.814 311.353 399.998 311.673 400.126 312.049C400.262 312.425 400.33 312.841 400.33 313.297C400.33 313.321 400.33 313.345 400.33 313.369C400.322 313.393 400.318 313.413 400.318 313.429V313.501H395.482C395.49 313.909 395.562 314.257 395.698 314.545C395.834 314.833 396.006 315.073 396.214 315.265C396.422 315.449 396.654 315.585 396.91 315.673C397.166 315.761 397.414 315.805 397.654 315.805C398.15 315.805 398.542 315.693 398.83 315.469C399.118 315.237 399.358 314.945 399.55 314.593L400.21 314.917ZM399.526 312.853C399.518 312.661 399.478 312.453 399.406 312.229C399.334 312.005 399.222 311.797 399.07 311.605C398.918 311.413 398.714 311.253 398.458 311.125C398.21 310.997 397.902 310.933 397.534 310.933C397.294 310.933 397.062 310.977 396.838 311.065C396.614 311.145 396.41 311.265 396.226 311.425C396.05 311.585 395.898 311.785 395.77 312.025C395.65 312.265 395.57 312.541 395.53 312.853H399.526ZM401.402 307.717H402.17V313.417L405.146 310.429H406.118V310.477L403.91 312.697L406.334 316.261V316.309H405.434L403.358 313.237L402.17 314.425V316.309H401.402V307.717ZM412.335 316.501C412.047 316.501 411.763 316.457 411.483 316.369C411.203 316.281 410.943 316.145 410.703 315.961C410.463 315.777 410.251 315.549 410.067 315.277C409.883 314.997 409.743 314.669 409.647 314.293L410.331 314.017C410.475 314.577 410.719 315.009 411.063 315.313C411.407 315.617 411.823 315.769 412.311 315.769C412.615 315.769 412.891 315.721 413.139 315.625C413.395 315.529 413.611 315.393 413.787 315.217C413.971 315.033 414.111 314.821 414.207 314.581C414.303 314.333 414.351 314.057 414.351 313.753C414.351 313.457 414.303 313.189 414.207 312.949C414.111 312.701 413.975 312.489 413.799 312.313C413.631 312.129 413.423 311.989 413.175 311.893C412.935 311.789 412.667 311.737 412.371 311.737C412.059 311.737 411.759 311.809 411.471 311.953C411.191 312.089 410.959 312.285 410.775 312.541L409.947 312.181L410.475 308.101H414.579V308.833H411.123L410.727 311.689L410.775 311.701C410.975 311.501 411.219 311.341 411.507 311.221C411.795 311.093 412.127 311.029 412.503 311.029C412.863 311.029 413.199 311.097 413.511 311.233C413.831 311.369 414.107 311.557 414.339 311.797C414.579 312.037 414.767 312.325 414.903 312.661C415.047 312.989 415.119 313.349 415.119 313.741C415.119 314.125 415.051 314.485 414.915 314.821C414.779 315.157 414.587 315.449 414.339 315.697C414.099 315.945 413.807 316.141 413.463 316.285C413.119 316.429 412.743 316.501 412.335 316.501Z" fill="#5E6265"/>
<path d="M2 274.309C54.3919 274.309 48.1959 175.721 100.588 175.721C152.98 175.721 146.784 202.011 199.176 202.011C251.568 202.011 243.494 245.202 295.885 245.202C348.277 245.202 357.155 267.391 409.546 267.391" stroke="url(#paint0_linear_2_50)" stroke-width="3" stroke-linecap="round"/>
<path d="M2 274.309C53.1907 274.309 59.7253 205.767 110.916 205.767C162.107 205.767 153.618 151.309 204.809 151.309C256 151.309 255.023 228.301 306.214 228.301C357.404 228.301 360.183 267.107 411.374 267.107" stroke="url(#paint1_linear_2_50)" stroke-width="3" stroke-linecap="round"/>
<circle opacity="0.2" cx="327" cy="231" r="10" fill="#4EF2E4"/>
<circle cx="327" cy="231" r="5" fill="#4EEEE5"/>
<path d="M297.287 210.234C296.867 210.186 296.459 210.078 296.063 209.91C295.667 209.742 295.295 209.52 294.947 209.244C294.611 208.968 294.311 208.632 294.047 208.236C293.795 207.84 293.597 207.384 293.453 206.868L295.235 206.13C295.367 206.658 295.613 207.126 295.973 207.534C296.333 207.93 296.771 208.194 297.287 208.326V204.438L297.161 204.384C296.693 204.204 296.261 204 295.865 203.772C295.469 203.532 295.127 203.262 294.839 202.962C294.551 202.662 294.329 202.332 294.173 201.972C294.017 201.612 293.939 201.204 293.939 200.748C293.939 200.34 294.011 199.95 294.155 199.578C294.311 199.206 294.533 198.87 294.821 198.57C295.109 198.27 295.457 198.024 295.865 197.832C296.285 197.628 296.759 197.496 297.287 197.436V195.888H298.781V197.472C299.249 197.544 299.657 197.67 300.005 197.85C300.353 198.03 300.653 198.24 300.905 198.48C301.157 198.708 301.361 198.954 301.517 199.218C301.673 199.47 301.793 199.71 301.877 199.938L300.113 200.712C300.029 200.46 299.879 200.208 299.663 199.956C299.459 199.704 299.165 199.512 298.781 199.38V203.016C299.249 203.22 299.687 203.436 300.095 203.664C300.503 203.88 300.857 204.132 301.157 204.42C301.457 204.696 301.691 205.02 301.859 205.392C302.039 205.752 302.129 206.172 302.129 206.652C302.129 207.192 302.033 207.666 301.841 208.074C301.661 208.482 301.415 208.836 301.103 209.136C300.803 209.436 300.449 209.676 300.041 209.856C299.645 210.024 299.225 210.144 298.781 210.216V211.8H297.287V210.234ZM300.131 206.688C300.131 206.304 300.017 205.992 299.789 205.752C299.573 205.512 299.237 205.284 298.781 205.068V208.29C299.177 208.182 299.501 207.996 299.753 207.732C300.005 207.456 300.131 207.108 300.131 206.688ZM295.865 200.766C295.865 201.114 295.979 201.414 296.207 201.666C296.447 201.906 296.807 202.146 297.287 202.386V199.29C296.855 199.386 296.507 199.566 296.243 199.83C295.991 200.082 295.865 200.394 295.865 200.766Z" fill="#C720FE"/>
<path d="M307.576 210V208.11C308.272 207.426 308.914 206.784 309.502 206.184C309.754 205.932 310.006 205.674 310.258 205.41C310.522 205.146 310.768 204.9 310.996 204.672C311.224 204.432 311.434 204.216 311.626 204.024C311.818 203.82 311.968 203.658 312.076 203.538C312.304 203.274 312.502 203.04 312.67 202.836C312.838 202.632 312.976 202.434 313.084 202.242C313.192 202.05 313.27 201.858 313.318 201.666C313.378 201.474 313.408 201.258 313.408 201.018C313.408 200.802 313.36 200.592 313.264 200.388C313.18 200.184 313.054 200.004 312.886 199.848C312.718 199.68 312.508 199.548 312.256 199.452C312.016 199.344 311.734 199.29 311.41 199.29C311.098 199.29 310.822 199.344 310.582 199.452C310.354 199.548 310.156 199.68 309.988 199.848C309.82 200.004 309.682 200.178 309.574 200.37C309.466 200.55 309.388 200.73 309.34 200.91L307.522 200.172C307.606 199.884 307.75 199.578 307.954 199.254C308.158 198.93 308.422 198.63 308.746 198.354C309.07 198.078 309.454 197.85 309.898 197.67C310.354 197.49 310.87 197.4 311.446 197.4C312.058 197.4 312.61 197.496 313.102 197.688C313.594 197.88 314.014 198.138 314.362 198.462C314.71 198.786 314.974 199.164 315.154 199.596C315.346 200.028 315.442 200.49 315.442 200.982C315.442 201.366 315.382 201.738 315.262 202.098C315.154 202.458 315.004 202.806 314.812 203.142C314.632 203.466 314.422 203.772 314.182 204.06C313.954 204.348 313.72 204.612 313.48 204.852C313.42 204.912 313.33 205.002 313.21 205.122C313.09 205.242 312.946 205.386 312.778 205.554C312.622 205.71 312.448 205.878 312.256 206.058C312.064 206.25 311.872 206.442 311.68 206.634L310.222 208.092L310.24 208.164H315.586V210H307.576ZM321.926 202.134C322.394 202.134 322.85 202.236 323.294 202.44C323.75 202.632 324.152 202.902 324.5 203.25C324.86 203.598 325.148 204.018 325.364 204.51C325.592 205.002 325.706 205.536 325.706 206.112C325.706 206.688 325.586 207.234 325.346 207.75C325.118 208.254 324.806 208.698 324.41 209.082C324.026 209.454 323.576 209.748 323.06 209.964C322.544 210.18 322.004 210.288 321.44 210.288C320.78 210.288 320.18 210.174 319.64 209.946C319.112 209.706 318.656 209.394 318.272 209.01C317.9 208.614 317.612 208.164 317.408 207.66C317.204 207.144 317.102 206.616 317.102 206.076C317.102 205.296 317.258 204.582 317.57 203.934C317.894 203.274 318.29 202.602 318.758 201.918L321.854 197.364L323.438 198.444L320.648 202.35L320.72 202.404C320.876 202.32 321.05 202.254 321.242 202.206C321.446 202.158 321.674 202.134 321.926 202.134ZM321.404 208.416C321.716 208.416 322.01 208.362 322.286 208.254C322.574 208.134 322.82 207.972 323.024 207.768C323.24 207.564 323.408 207.324 323.528 207.048C323.66 206.772 323.726 206.466 323.726 206.13C323.726 205.806 323.66 205.506 323.528 205.23C323.408 204.942 323.24 204.702 323.024 204.51C322.808 204.306 322.556 204.15 322.268 204.042C321.992 203.922 321.704 203.862 321.404 203.862C321.092 203.862 320.798 203.922 320.522 204.042C320.246 204.15 320 204.306 319.784 204.51C319.58 204.702 319.412 204.942 319.28 205.23C319.16 205.506 319.1 205.806 319.1 206.13C319.1 206.466 319.16 206.772 319.28 207.048C319.412 207.324 319.58 207.564 319.784 207.768C320 207.972 320.246 208.134 320.522 208.254C320.798 208.362 321.092 208.416 321.404 208.416ZM327.211 211.566L328.237 209.982C327.997 209.91 327.781 209.766 327.589 209.55C327.397 209.334 327.301 209.058 327.301 208.722C327.301 208.338 327.433 208.008 327.697 207.732C327.973 207.456 328.303 207.318 328.687 207.318C329.071 207.318 329.401 207.456 329.677 207.732C329.953 208.008 330.091 208.338 330.091 208.722C330.091 208.962 330.043 209.178 329.947 209.37C329.851 209.562 329.731 209.766 329.587 209.982L328.129 212.16L327.211 211.566ZM337.434 210V207.57H331.674V205.986L337.272 197.688H339.45V205.698H340.998V207.57H339.45V210H337.434ZM337.434 200.658H337.326L333.924 205.698H337.434V200.658ZM346.768 210.288C346.336 210.288 345.898 210.222 345.454 210.09C345.01 209.958 344.59 209.76 344.194 209.496C343.81 209.22 343.468 208.872 343.168 208.452C342.868 208.032 342.646 207.534 342.502 206.958L344.302 206.238C344.458 206.874 344.74 207.396 345.148 207.804C345.568 208.2 346.102 208.398 346.75 208.398C347.074 208.398 347.38 208.344 347.668 208.236C347.956 208.116 348.202 207.96 348.406 207.768C348.61 207.564 348.772 207.324 348.892 207.048C349.012 206.772 349.072 206.466 349.072 206.13C349.072 205.794 349.012 205.488 348.892 205.212C348.784 204.924 348.628 204.678 348.424 204.474C348.22 204.27 347.974 204.114 347.686 204.006C347.398 203.886 347.086 203.826 346.75 203.826C346.354 203.826 345.994 203.916 345.67 204.096C345.346 204.264 345.076 204.486 344.86 204.762L342.88 203.88L343.618 197.688H350.332V199.506H345.292L344.842 202.71L344.95 202.746C345.214 202.542 345.52 202.368 345.868 202.224C346.216 202.08 346.642 202.008 347.146 202.008C347.662 202.008 348.154 202.11 348.622 202.314C349.102 202.506 349.522 202.782 349.882 203.142C350.242 203.502 350.53 203.934 350.746 204.438C350.962 204.942 351.07 205.5 351.07 206.112C351.07 206.712 350.962 207.27 350.746 207.786C350.53 208.29 350.23 208.728 349.846 209.1C349.462 209.472 349.006 209.766 348.478 209.982C347.962 210.186 347.392 210.288 346.768 210.288ZM357.486 202.134C357.954 202.134 358.41 202.236 358.854 202.44C359.31 202.632 359.712 202.902 360.06 203.25C360.42 203.598 360.708 204.018 360.924 204.51C361.152 205.002 361.266 205.536 361.266 206.112C361.266 206.688 361.146 207.234 360.906 207.75C360.678 208.254 360.366 208.698 359.97 209.082C359.586 209.454 359.136 209.748 358.62 209.964C358.104 210.18 357.564 210.288 357 210.288C356.34 210.288 355.74 210.174 355.2 209.946C354.672 209.706 354.216 209.394 353.832 209.01C353.46 208.614 353.172 208.164 352.968 207.66C352.764 207.144 352.662 206.616 352.662 206.076C352.662 205.296 352.818 204.582 353.13 203.934C353.454 203.274 353.85 202.602 354.318 201.918L357.414 197.364L358.998 198.444L356.208 202.35L356.28 202.404C356.436 202.32 356.61 202.254 356.802 202.206C357.006 202.158 357.234 202.134 357.486 202.134ZM356.964 208.416C357.276 208.416 357.57 208.362 357.846 208.254C358.134 208.134 358.38 207.972 358.584 207.768C358.8 207.564 358.968 207.324 359.088 207.048C359.22 206.772 359.286 206.466 359.286 206.13C359.286 205.806 359.22 205.506 359.088 205.23C358.968 204.942 358.8 204.702 358.584 204.51C358.368 204.306 358.116 204.15 357.828 204.042C357.552 203.922 357.264 203.862 356.964 203.862C356.652 203.862 356.358 203.922 356.082 204.042C355.806 204.15 355.56 204.306 355.344 204.51C355.14 204.702 354.972 204.942 354.84 205.23C354.72 205.506 354.66 205.806 354.66 206.13C354.66 206.466 354.72 206.772 354.84 207.048C354.972 207.324 355.14 207.564 355.344 207.768C355.56 207.972 355.806 208.134 356.082 208.254C356.358 208.362 356.652 208.416 356.964 208.416Z" fill="black"/>
<path d="M317.76 190.12V191H313.4V190.08L315.17 188.29C315.763 187.683 316.173 187.23 316.4 186.93C316.627 186.623 316.74 186.303 316.74 185.97C316.74 185.67 316.623 185.413 316.39 185.2C316.157 184.987 315.857 184.88 315.49 184.88C315.177 184.88 314.907 184.973 314.68 185.16C314.453 185.347 314.307 185.573 314.24 185.84L313.4 185.5C313.533 185.08 313.79 184.727 314.17 184.44C314.55 184.147 314.997 184 315.51 184C316.13 184 316.647 184.19 317.06 184.57C317.473 184.95 317.68 185.417 317.68 185.97C317.68 186.63 317.317 187.343 316.59 188.11L314.59 190.12H317.76ZM321.145 186.66C321.699 186.66 322.192 186.88 322.625 187.32C323.065 187.753 323.285 188.27 323.285 188.87C323.285 189.483 323.052 190.02 322.585 190.48C322.112 190.933 321.565 191.16 320.945 191.16C320.285 191.16 319.729 190.933 319.275 190.48C318.822 190.027 318.595 189.49 318.595 188.87C318.595 188.317 318.819 187.687 319.265 186.98L321.255 184L321.995 184.51L320.305 186.85L320.325 186.87C320.532 186.73 320.805 186.66 321.145 186.66ZM319.525 188.88C319.525 189.273 319.662 189.607 319.935 189.88C320.209 190.147 320.545 190.28 320.945 190.28C321.345 190.28 321.679 190.147 321.945 189.88C322.219 189.607 322.355 189.273 322.355 188.88C322.355 188.493 322.215 188.163 321.935 187.89C321.662 187.617 321.332 187.48 320.945 187.48C320.565 187.48 320.232 187.617 319.945 187.89C319.665 188.163 319.525 188.493 319.525 188.88ZM324.554 192.12L324.124 191.84L324.664 191C324.524 190.973 324.404 190.903 324.304 190.79C324.21 190.677 324.164 190.54 324.164 190.38C324.164 190.187 324.23 190.027 324.364 189.9C324.497 189.767 324.657 189.7 324.844 189.7C325.037 189.7 325.197 189.767 325.324 189.9C325.457 190.027 325.524 190.187 325.524 190.38C325.524 190.56 325.457 190.757 325.324 190.97L324.554 192.12ZM333.543 187.42C333.543 188.48 333.189 189.367 332.483 190.08C331.769 190.8 330.896 191.16 329.863 191.16C328.823 191.16 327.949 190.8 327.243 190.08C326.536 189.367 326.183 188.48 326.183 187.42C326.183 186.36 326.536 185.473 327.243 184.76C327.949 184.04 328.823 183.68 329.863 183.68C330.903 183.68 331.776 184.043 332.483 184.77C333.189 185.483 333.543 186.367 333.543 187.42ZM327.123 187.42C327.123 188.247 327.383 188.93 327.903 189.47C328.429 190.01 329.083 190.28 329.863 190.28C330.643 190.28 331.293 190.01 331.813 189.47C332.339 188.937 332.603 188.253 332.603 187.42C332.603 186.587 332.339 185.903 331.813 185.37C331.293 184.83 330.643 184.56 329.863 184.56C329.083 184.56 328.429 184.83 327.903 185.37C327.383 185.91 327.123 186.593 327.123 187.42ZM336.708 191.16C335.982 191.16 335.378 190.913 334.898 190.42C334.425 189.913 334.188 189.29 334.188 188.55C334.188 187.797 334.425 187.173 334.898 186.68C335.378 186.187 335.982 185.94 336.708 185.94C337.208 185.94 337.645 186.067 338.018 186.32C338.392 186.567 338.672 186.91 338.858 187.35L338.018 187.7C337.758 187.087 337.302 186.78 336.648 186.78C336.228 186.78 335.865 186.95 335.558 187.29C335.258 187.63 335.108 188.05 335.108 188.55C335.108 189.05 335.258 189.47 335.558 189.81C335.865 190.15 336.228 190.32 336.648 190.32C337.322 190.32 337.795 190.013 338.068 189.4L338.888 189.75C338.708 190.19 338.425 190.537 338.038 190.79C337.658 191.037 337.215 191.16 336.708 191.16ZM341.584 191.08C341.184 191.08 340.851 190.957 340.584 190.71C340.324 190.463 340.191 190.12 340.184 189.68V186.94H339.324V186.1H340.184V184.6H341.104V186.1H342.304V186.94H341.104V189.38C341.104 189.707 341.167 189.93 341.294 190.05C341.421 190.163 341.564 190.22 341.724 190.22C341.797 190.22 341.867 190.213 341.934 190.2C342.007 190.18 342.074 190.157 342.134 190.13L342.424 190.95C342.184 191.037 341.904 191.08 341.584 191.08Z" fill="#979797"/>
<defs>
<linearGradient id="paint0_linear_2_50" x1="409.546" y1="175.721" x2="16.8585" y2="175.721" gradientUnits="userSpaceOnUse">
<stop stop-color="#4DFFDF"/>
<stop offset="1" stop-color="#4DA1FF"/>
</linearGradient>
<linearGradient id="paint1_linear_2_50" x1="411.374" y1="182.059" x2="12.2084" y2="183.194" gradientUnits="userSpaceOnUse">
<stop stop-color="#E323FF"/>
<stop offset="1" stop-color="#7517F8"/>
</linearGradient>
</defs>
</svg>
