<svg width="85" height="30" viewBox="0 0 85 30" fill="none" xmlns="http://www.w3.org/2000/svg">
<path d="M2 28C3.39656 27.0797 4.85833 26.5891 6.35486 26.0868C8.06366 25.5133 9.81778 24.9246 11.5719 23.6636C12.5893 22.9932 13.6413 22.0491 14.7044 21.0951C16.7668 19.2443 18.8709 17.3562 20.8447 17.3562C22.9381 17.3562 24.9105 19.1115 26.9158 20.8962C28.0623 21.9166 29.2197 22.9466 30.4166 23.6636C33.4078 26.0289 36.6981 26.0289 39.6893 20.5099C41.0734 18.3542 42.4574 15.222 43.8192 12.1402C45.6948 7.89544 47.5282 3.74629 49.2612 2.37592C51.459 1.05933 53.5234 3.4363 55.6325 5.86489C56.681 7.07217 57.7406 8.29221 58.8331 9.0776C60.3287 10.0631 61.8991 10.0631 63.4695 10.0631C65.0399 10.0631 66.6103 10.0631 68.1059 11.0487C69.4914 11.8786 70.8768 13.4774 72.2399 15.0504C74.1141 17.2132 75.9461 19.3272 77.6778 19.3272C79.323 19.3272 80.8934 17.7504 82.4638 16.1735C82.6425 15.9941 82.8212 15.8146 83 15.6375" stroke="#F39800" stroke-width="3" stroke-linecap="round"/>
</svg>
