<svg width="89" height="31" viewBox="0 0 89 31" fill="none" xmlns="http://www.w3.org/2000/svg">
<path d="M2 2C3.46553 2.95567 4.99949 3.46515 6.56991 3.98675C8.3631 4.58233 10.2038 5.1937 12.0446 6.50317C13.1122 7.19939 14.2162 8.17978 15.3318 9.17048C17.496 11.0924 19.704 13.0532 21.7753 13.0532C23.9721 13.0532 26.0418 11.2304 28.1462 9.37701C29.3494 8.31737 30.5638 7.24775 31.8199 6.50317C34.9588 4.0469 38.4116 4.0469 41.5505 9.7782C43.0029 12.0168 44.4553 15.2695 45.8843 18.4698C47.8526 22.8778 49.7765 27.1865 51.5951 28.6096C53.9015 29.9768 56.0677 27.5085 58.281 24.9865C59.3813 23.7327 60.4932 22.4658 61.6397 21.6502C63.2092 20.6267 64.8571 20.6267 66.5051 20.6267C68.153 20.6267 69.8009 20.6267 71.3704 19.6033C72.8243 18.7414 74.2781 17.0812 75.7085 15.4477C77.6753 13.2017 79.5977 11.0063 81.415 11.0063C83.1414 11.0063 84.7893 12.6439 86.4373 14.2814C86.6248 14.4677 86.8123 14.6541 87 14.838" stroke="#B033AB" stroke-width="3" stroke-linecap="round"/>
</svg>
