<svg width="58" height="58" viewBox="0 0 58 58" fill="none" xmlns="http://www.w3.org/2000/svg">
<circle cx="29" cy="29" r="29" fill="#C83B53"/>
<path d="M18.1073 41.4822H17.0716C16.9342 41.4822 16.8025 41.5367 16.7054 41.6339C16.6083 41.731 16.5537 41.8627 16.5537 42C16.5537 42.1374 16.6083 42.2691 16.7054 42.3662C16.8025 42.4633 16.9342 42.5179 17.0716 42.5179H18.1073C18.2446 42.5179 18.3763 42.4633 18.4735 42.3662C18.5706 42.2691 18.6251 42.1374 18.6251 42C18.6251 41.8627 18.5706 41.731 18.4735 41.6339C18.3763 41.5367 18.2446 41.4822 18.1073 41.4822Z" fill="white"/>
<path d="M18.1073 39.9285H17.0716C16.9342 39.9285 16.8025 39.983 16.7054 40.0801C16.6083 40.1773 16.5537 40.309 16.5537 40.4463C16.5537 40.5837 16.6083 40.7154 16.7054 40.8125C16.8025 40.9096 16.9342 40.9642 17.0716 40.9642H18.1073C18.2446 40.9642 18.3763 40.9096 18.4735 40.8125C18.5706 40.7154 18.6251 40.5837 18.6251 40.4463C18.6251 40.309 18.5706 40.1773 18.4735 40.0801C18.3763 39.983 18.2446 39.9285 18.1073 39.9285Z" fill="white"/>
<path d="M27.4286 41.4822H26.3929C26.2555 41.4822 26.1238 41.5367 26.0267 41.6339C25.9296 41.731 25.875 41.8627 25.875 42C25.875 42.1374 25.9296 42.2691 26.0267 42.3662C26.1238 42.4633 26.2555 42.5179 26.3929 42.5179H27.4286C27.5659 42.5179 27.6976 42.4633 27.7948 42.3662C27.8919 42.2691 27.9464 42.1374 27.9464 42C27.9464 41.8627 27.8919 41.731 27.7948 41.6339C27.6976 41.5367 27.5659 41.4822 27.4286 41.4822Z" fill="white"/>
<path d="M27.4286 39.9285H26.3929C26.2555 39.9285 26.1238 39.983 26.0267 40.0801C25.9296 40.1773 25.875 40.309 25.875 40.4463C25.875 40.5837 25.9296 40.7154 26.0267 40.8125C26.1238 40.9096 26.2555 40.9642 26.3929 40.9642H27.4286C27.5659 40.9642 27.6976 40.9096 27.7948 40.8125C27.8919 40.7154 27.9464 40.5837 27.9464 40.4463C27.9464 40.309 27.8919 40.1773 27.7948 40.0801C27.6976 39.983 27.5659 39.9285 27.4286 39.9285Z" fill="white"/>
<path d="M36.7499 41.4822H35.7141C35.5768 41.4822 35.4451 41.5367 35.348 41.6339C35.2508 41.731 35.1963 41.8627 35.1963 42C35.1963 42.1374 35.2508 42.2691 35.348 42.3662C35.4451 42.4633 35.5768 42.5179 35.7141 42.5179H36.7499C36.8872 42.5179 37.0189 42.4633 37.116 42.3662C37.2132 42.2691 37.2677 42.1374 37.2677 42C37.2677 41.8627 37.2132 41.731 37.116 41.6339C37.0189 41.5367 36.8872 41.4822 36.7499 41.4822Z" fill="white"/>
<path d="M36.7499 39.9285H35.7141C35.5768 39.9285 35.4451 39.983 35.348 40.0801C35.2508 40.1773 35.1963 40.309 35.1963 40.4463C35.1963 40.5837 35.2508 40.7154 35.348 40.8125C35.4451 40.9096 35.5768 40.9642 35.7141 40.9642H36.7499C36.8872 40.9642 37.0189 40.9096 37.116 40.8125C37.2132 40.7154 37.2677 40.5837 37.2677 40.4463C37.2677 40.309 37.2132 40.1773 37.116 40.0801C37.0189 39.983 36.8872 39.9285 36.7499 39.9285Z" fill="white"/>
<path d="M43.4821 32.6786H39.3393V22.8393C39.3393 22.7019 39.2847 22.5702 39.1876 22.4731C39.0905 22.376 38.9588 22.3214 38.8214 22.3214H34.6786V13.5179C34.6786 13.3805 34.624 13.2488 34.5269 13.1517C34.4298 13.0546 34.2981 13 34.1607 13H24.8393C24.7019 13 24.5702 13.0546 24.4731 13.1517C24.376 13.2488 24.3214 13.3805 24.3214 13.5179V22.3214H20.1786C20.0412 22.3214 19.9095 22.376 19.8124 22.4731C19.7153 22.5702 19.6607 22.7019 19.6607 22.8393V32.6786H15.5179C15.3805 32.6786 15.2488 32.7331 15.1517 32.8302C15.0546 32.9274 15 33.0591 15 33.1964V43.5536C15 43.6909 15.0546 43.8226 15.1517 43.9198C15.2488 44.0169 15.3805 44.0714 15.5179 44.0714H43.4821C43.6195 44.0714 43.7512 44.0169 43.8483 43.9198C43.9454 43.8226 44 43.6909 44 43.5536V33.1964C44 33.0591 43.9454 32.9274 43.8483 32.8302C43.7512 32.7331 43.6195 32.6786 43.4821 32.6786ZM38.3036 33.7143H39.3393V35.7857H38.3036V33.7143ZM38.3036 32.6786H30.0179V23.3571H32.6071V25.9464C32.6071 26.0838 32.6617 26.2155 32.7588 26.3126C32.8559 26.4097 32.9877 26.4643 33.125 26.4643H35.1964C35.3338 26.4643 35.4655 26.4097 35.5626 26.3126C35.6597 26.2155 35.7143 26.0838 35.7143 25.9464V23.3571H38.3036V32.6786ZM28.9821 33.7143H30.0179V35.7857H28.9821V33.7143ZM34.6786 23.3571V25.4286H33.6429V23.3571H34.6786ZM30.0179 14.0357V15.0714H28.9821V14.0357H30.0179ZM25.3571 14.0357H27.9464V15.5893C27.9464 15.7266 28.001 15.8583 28.0981 15.9555C28.1952 16.0526 28.3269 16.1071 28.4643 16.1071H30.5357C30.6731 16.1071 30.8048 16.0526 30.9019 15.9555C30.999 15.8583 31.0536 15.7266 31.0536 15.5893V14.0357H33.6429V22.3214H25.3571V14.0357ZM25.3571 23.3571V25.4286H24.3214V23.3571H25.3571ZM20.6964 23.3571H23.2857V25.9464C23.2857 26.0838 23.3403 26.2155 23.4374 26.3126C23.5345 26.4097 23.6662 26.4643 23.8036 26.4643H25.875C26.0123 26.4643 26.1441 26.4097 26.2412 26.3126C26.3383 26.2155 26.3929 26.0838 26.3929 25.9464V23.3571H28.9821V32.6786H20.6964V23.3571ZM20.6964 33.7143V35.7857H19.6607V33.7143H20.6964ZM16.0357 33.7143H18.625V36.3036C18.625 36.4409 18.6796 36.5726 18.7767 36.6698C18.8738 36.7669 19.0055 36.8214 19.1429 36.8214H21.2143C21.3516 36.8214 21.4833 36.7669 21.5805 36.6698C21.6776 36.5726 21.7321 36.4409 21.7321 36.3036V33.7143H24.3214V43.0357H16.0357V33.7143ZM25.3571 33.7143H27.9464V36.3036C27.9464 36.4409 28.001 36.5726 28.0981 36.6698C28.1952 36.7669 28.3269 36.8214 28.4643 36.8214H30.5357C30.6731 36.8214 30.8048 36.7669 30.9019 36.6698C30.999 36.5726 31.0536 36.4409 31.0536 36.3036V33.7143H33.6429V43.0357H25.3571V33.7143ZM42.9643 43.0357H34.6786V33.7143H37.2679V36.3036C37.2679 36.4409 37.3224 36.5726 37.4195 36.6698C37.5167 36.7669 37.6484 36.8214 37.7857 36.8214H39.8571C39.9945 36.8214 40.1262 36.7669 40.2233 36.6698C40.3204 36.5726 40.375 36.4409 40.375 36.3036V33.7143H42.9643V43.0357Z" fill="white"/>
<path d="M21.7317 32.1607H22.7674C22.9048 32.1607 23.0365 32.1062 23.1336 32.009C23.2307 31.9119 23.2853 31.7802 23.2853 31.6429C23.2853 31.5055 23.2307 31.3738 23.1336 31.2767C23.0365 31.1796 22.9048 31.125 22.7674 31.125H21.7317C21.5944 31.125 21.4627 31.1796 21.3655 31.2767C21.2684 31.3738 21.2139 31.5055 21.2139 31.6429C21.2139 31.7802 21.2684 31.9119 21.3655 32.009C21.4627 32.1062 21.5944 32.1607 21.7317 32.1607Z" fill="white"/>
<path d="M21.7317 30.6072H22.7674C22.9048 30.6072 23.0365 30.5527 23.1336 30.4556C23.2307 30.3585 23.2853 30.2267 23.2853 30.0894C23.2853 29.952 23.2307 29.8203 23.1336 29.7232C23.0365 29.6261 22.9048 29.5715 22.7674 29.5715H21.7317C21.5944 29.5715 21.4627 29.6261 21.3655 29.7232C21.2684 29.8203 21.2139 29.952 21.2139 30.0894C21.2139 30.2267 21.2684 30.3585 21.3655 30.4556C21.4627 30.5527 21.5944 30.6072 21.7317 30.6072Z" fill="white"/>
<path d="M32.0897 31.125H31.054C30.9166 31.125 30.7849 31.1796 30.6878 31.2767C30.5907 31.3738 30.5361 31.5055 30.5361 31.6429C30.5361 31.7802 30.5907 31.9119 30.6878 32.009C30.7849 32.1062 30.9166 32.1607 31.054 32.1607H32.0897C32.227 32.1607 32.3588 32.1062 32.4559 32.009C32.553 31.9119 32.6076 31.7802 32.6076 31.6429C32.6076 31.5055 32.553 31.3738 32.4559 31.2767C32.3588 31.1796 32.227 31.125 32.0897 31.125Z" fill="white"/>
<path d="M32.0897 29.5715H31.054C30.9166 29.5715 30.7849 29.6261 30.6878 29.7232C30.5907 29.8203 30.5361 29.952 30.5361 30.0894C30.5361 30.2267 30.5907 30.3585 30.6878 30.4556C30.7849 30.5527 30.9166 30.6072 31.054 30.6072H32.0897C32.227 30.6072 32.3588 30.5527 32.4559 30.4556C32.553 30.3585 32.6076 30.2267 32.6076 30.0894C32.6076 29.952 32.553 29.8203 32.4559 29.7232C32.3588 29.6261 32.227 29.5715 32.0897 29.5715Z" fill="white"/>
<path d="M26.3929 20.2501H27.4286C27.5659 20.2501 27.6976 20.1955 27.7948 20.0984C27.8919 20.0013 27.9464 19.8696 27.9464 19.7322C27.9464 19.5949 27.8919 19.4631 27.7948 19.366C27.6976 19.2689 27.5659 19.2144 27.4286 19.2144H26.3929C26.2555 19.2144 26.1238 19.2689 26.0267 19.366C25.9296 19.4631 25.875 19.5949 25.875 19.7322C25.875 19.8696 25.9296 20.0013 26.0267 20.0984C26.1238 20.1955 26.2555 20.2501 26.3929 20.2501Z" fill="white"/>
<path d="M26.3929 21.8035H27.4286C27.5659 21.8035 27.6976 21.749 27.7948 21.6519C27.8919 21.5547 27.9464 21.423 27.9464 21.2857C27.9464 21.1483 27.8919 21.0166 27.7948 20.9195C27.6976 20.8224 27.5659 20.7678 27.4286 20.7678H26.3929C26.2555 20.7678 26.1238 20.8224 26.0267 20.9195C25.9296 21.0166 25.875 21.1483 25.875 21.2857C25.875 21.423 25.9296 21.5547 26.0267 21.6519C26.1238 21.749 26.2555 21.8035 26.3929 21.8035Z" fill="white"/>
</svg>
