<svg width="58" height="58" viewBox="0 0 58 58" fill="none" xmlns="http://www.w3.org/2000/svg">
<circle cx="29" cy="29" r="29" fill="#C83B53"/>
<path d="M43.7663 40.6601L43.3383 40.2321C43.2975 40.1913 43.2491 40.1589 43.1958 40.1367C43.1425 40.1146 43.0854 40.1032 43.0277 40.1032C42.97 40.1031 42.9128 40.1144 42.8595 40.1365C42.8061 40.1585 42.7577 40.1908 42.7168 40.2316C42.676 40.2724 42.6436 40.3208 42.6214 40.3741C42.5993 40.4274 42.5879 40.4846 42.5879 40.5423C42.5878 40.6 42.5991 40.6571 42.6212 40.7105C42.6432 40.7638 42.6755 40.8123 42.7163 40.8531L43.0823 41.2191L41.2183 43.0841L38.0483 39.9141L39.9123 38.0501L41.3913 39.5291C41.4322 39.57 41.4806 39.6024 41.534 39.6245C41.5874 39.6466 41.6446 39.6579 41.7023 39.6579C41.7601 39.6579 41.8173 39.6466 41.8706 39.6245C41.924 39.6024 41.9725 39.57 42.0133 39.5291C42.0542 39.4883 42.0866 39.4398 42.1087 39.3864C42.1308 39.3331 42.1421 39.2759 42.1421 39.2181C42.1421 39.1604 42.1308 39.1032 42.1087 39.0498C42.0866 38.9964 42.0542 38.948 42.0133 38.9071L40.2243 37.1181L38.9813 35.8751L37.8813 34.7751C37.8079 34.7016 37.7206 34.6433 37.6246 34.6035C37.5286 34.5637 37.4257 34.5433 37.3218 34.5433C37.2179 34.5433 37.115 34.5637 37.019 34.6035C36.923 34.6433 36.8358 34.7016 36.7623 34.7751L36.7003 34.8371L35.1283 33.2641C36.2724 31.8372 37.07 30.1644 37.4583 28.3771H40.5583C40.6749 28.3771 40.7867 28.3308 40.8691 28.2484C40.9515 28.166 40.9978 28.0542 40.9978 27.9376C40.9978 27.8211 40.9515 27.7093 40.8691 27.6268C40.7867 27.5444 40.6749 27.4981 40.5583 27.4981H37.6153C37.654 27.2188 37.6827 26.9365 37.7013 26.6511H42.6503C42.7669 26.6511 42.8787 26.6048 42.9611 26.5224C43.0435 26.44 43.0898 26.3282 43.0898 26.2116C43.0898 26.0951 43.0435 25.9833 42.9611 25.9008C42.8787 25.8184 42.7669 25.7721 42.6503 25.7721H37.7273C37.7273 25.4875 37.7157 25.2051 37.6923 24.9251H40.5563C40.6729 24.9251 40.7847 24.8788 40.8671 24.7964C40.9495 24.714 40.9958 24.6022 40.9958 24.4856C40.9958 24.3691 40.9495 24.2573 40.8671 24.1748C40.7847 24.0924 40.6729 24.0461 40.5563 24.0461H37.5923C37.2843 22.0189 36.4498 20.108 35.1723 18.5041C35.0999 18.4128 34.9942 18.3539 34.8784 18.3405C34.7626 18.3271 34.6462 18.3602 34.5548 18.4326C34.4635 18.505 34.4046 18.6108 34.3912 18.7266C34.3778 18.8424 34.4109 18.9588 34.4833 19.0501C36.0246 20.9856 36.8595 23.3889 36.8503 25.8631C36.8505 28.3822 35.9849 30.8247 34.3987 32.7816C32.8124 34.7385 30.6019 36.0908 28.1374 36.612C25.6728 37.1332 23.1041 36.7916 20.8614 35.6445C18.6187 34.4973 16.8384 32.6143 15.8187 30.3109C14.799 28.0075 14.6018 25.4236 15.2603 22.9921C15.9187 20.5607 17.3927 18.4294 19.4354 16.9552C21.4781 15.4811 23.9653 14.7538 26.4804 14.895C28.9954 15.0363 31.3856 16.0375 33.2503 17.7311C33.293 17.7699 33.3429 17.7999 33.3972 17.8195C33.4515 17.839 33.5091 17.8476 33.5667 17.8449C33.6243 17.8421 33.6808 17.8281 33.733 17.8035C33.7852 17.7789 33.832 17.7443 33.8708 17.7016C33.9096 17.6589 33.9396 17.609 33.9592 17.5548C33.9787 17.5005 33.9873 17.4429 33.9846 17.3853C33.9818 17.3276 33.9678 17.2711 33.9432 17.2189C33.9186 17.1668 33.884 17.1199 33.8413 17.0811C32.4853 15.8497 30.8625 14.949 29.1002 14.4496C27.3379 13.9501 25.4839 13.8655 23.6834 14.2023C21.8829 14.5391 20.1849 15.2882 18.7223 16.3909C17.2596 17.4935 16.0722 18.9199 15.2529 20.5582C14.4337 22.1965 14.0048 24.0022 14 25.8339C13.9952 27.6656 14.4146 29.4736 15.2253 31.1161C16.0359 32.7587 17.2159 34.1912 18.6727 35.3016C20.1295 36.4119 21.8236 37.1699 23.6223 37.5161V40.4811C23.6223 40.5977 23.6686 40.7095 23.751 40.7919C23.8335 40.8743 23.9453 40.9206 24.0618 40.9206C24.1784 40.9206 24.2902 40.8743 24.3726 40.7919C24.455 40.7095 24.5013 40.5977 24.5013 40.4811V37.6511C24.7813 37.6831 25.0637 37.7055 25.3483 37.7181V42.5481C25.3483 42.6647 25.3946 42.7765 25.477 42.8589C25.5595 42.9413 25.6713 42.9876 25.7878 42.9876C25.9044 42.9876 26.0162 42.9413 26.0986 42.8589C26.181 42.7765 26.2273 42.6647 26.2273 42.5481V37.7231C26.512 37.7145 26.7943 37.6961 27.0743 37.6681V40.4811C27.0743 40.5977 27.1206 40.7095 27.203 40.7919C27.2855 40.8743 27.3973 40.9206 27.5138 40.9206C27.6304 40.9206 27.7422 40.8743 27.8246 40.7919C27.907 40.7095 27.9533 40.5977 27.9533 40.4811V37.5451C29.898 37.1967 31.7243 36.3664 33.2653 35.1301L34.8383 36.6991L34.7763 36.7611C34.7028 36.8346 34.6445 36.9218 34.6047 37.0178C34.5649 37.1138 34.5445 37.2167 34.5445 37.3206C34.5445 37.4245 34.5649 37.5274 34.6047 37.6234C34.6445 37.7194 34.7028 37.8067 34.7763 37.8801L35.8763 38.9801L37.1193 40.2231L40.6613 43.7651C40.7348 43.8386 40.822 43.8969 40.918 43.9367C41.014 43.9765 41.1169 43.997 41.2208 43.997C41.3247 43.997 41.4276 43.9765 41.5236 43.9367C41.6196 43.8969 41.7069 43.8386 41.7803 43.7651L43.7693 41.7761C43.8428 41.7027 43.9011 41.6154 43.9409 41.5194C43.9807 41.4234 44.0012 41.3205 44.0012 41.2166C44.0012 41.1127 43.9807 41.0098 43.9409 40.9138C43.9011 40.8178 43.8428 40.7306 43.7693 40.6571L43.7663 40.6601ZM34.5543 33.9331L36.0813 35.4601L35.4603 36.0811L33.9333 34.5541C34.148 34.3541 34.3553 34.1468 34.5553 33.9321L34.5543 33.9331ZM37.4273 39.2931L36.8053 38.6721L38.6693 36.8081L39.2903 37.4301L37.4273 39.2931ZM37.3273 35.4611L38.0523 36.1861L36.1883 38.0501L35.4633 37.3251L37.3273 35.4611Z" fill="white"/>
<path d="M19.7443 33.9091C21.5107 35.2346 23.656 35.9578 25.8643 35.9721C28.545 35.9723 31.116 34.9075 33.0116 33.0121C34.9072 31.1166 35.9722 28.5458 35.9724 25.8651C35.9725 23.1845 34.9077 20.6135 33.0123 18.7179C31.1169 16.8223 28.546 15.7573 25.8653 15.7571C24.5408 15.7542 23.229 16.0148 22.0061 16.5236C20.7832 17.0325 19.6738 17.7795 18.7424 18.7211C16.8497 20.6161 15.7773 23.1789 15.7563 25.8571C15.7287 28.3393 16.6366 30.7409 18.2993 32.5841C18.338 32.627 18.3846 32.6619 18.4367 32.6867C18.4888 32.7115 18.5453 32.7259 18.6029 32.7289C18.6605 32.7319 18.7181 32.7236 18.7725 32.7043C18.8269 32.685 18.877 32.6552 18.9198 32.6166C18.9627 32.578 18.9976 32.5314 19.0224 32.4793C19.0473 32.4272 19.0616 32.3707 19.0646 32.3131C19.0676 32.2555 19.0593 32.1978 19.04 32.1435C19.0207 32.0891 18.991 32.039 18.9523 31.9961C17.4367 30.3167 16.6092 28.1282 16.6343 25.8661C16.654 23.4175 17.6347 21.0745 19.3653 19.3421C20.2152 18.4826 21.2276 17.8008 22.3435 17.3362C23.4594 16.8716 24.6566 16.6337 25.8653 16.6361C28.2963 16.6614 30.619 17.6449 32.329 19.3728C34.0391 21.1007 34.9983 23.4336 34.9983 25.8646C34.9983 28.2957 34.0391 30.6285 32.329 32.3565C30.619 34.0844 28.2963 35.0678 25.8653 35.0931C23.8447 35.0802 21.8817 34.4188 20.2653 33.2061C20.1722 33.1432 20.0583 33.1184 19.9474 33.1369C19.8365 33.1554 19.7369 33.2158 19.6692 33.3056C19.6014 33.3954 19.5708 33.5077 19.5834 33.6195C19.5961 33.7312 19.6512 33.8338 19.7373 33.9061L19.7443 33.9091Z" fill="white"/>
<path d="M27.5333 18.0131H24.4863C24.3076 18.0134 24.1364 18.0845 24.01 18.2108C23.8837 18.3372 23.8126 18.5085 23.8123 18.6871V20.2401H20.9703C20.7916 20.2404 20.6204 20.3115 20.494 20.4378C20.3677 20.5642 20.2966 20.7354 20.2963 20.9141V25.6311H19.7073C19.5908 25.6311 19.479 25.6774 19.3965 25.7598C19.3141 25.8423 19.2678 25.9541 19.2678 26.0706C19.2678 26.1872 19.3141 26.299 19.3965 26.3814C19.479 26.4638 19.5908 26.5101 19.7073 26.5101H32.3073C32.4239 26.5101 32.5357 26.4638 32.6181 26.3814C32.7005 26.299 32.7468 26.1872 32.7468 26.0706C32.7468 25.9541 32.7005 25.8423 32.6181 25.7598C32.5357 25.6774 32.4239 25.6311 32.3073 25.6311H31.7193V23.1411C31.7191 22.9624 31.648 22.7912 31.5216 22.6648C31.3953 22.5385 31.224 22.4674 31.0453 22.4671H28.2073V18.6871C28.2071 18.5085 28.136 18.3372 28.0096 18.2108C27.8833 18.0845 27.712 18.0134 27.5333 18.0131ZM21.1763 21.1181H23.8133V25.6301H21.1763V21.1181ZM24.6923 18.8911H27.3293V25.6291H24.6913L24.6923 18.8911ZM30.8443 23.3441V25.6291H28.2073V23.3451L30.8443 23.3441Z" fill="white"/>
<path d="M30.9313 30.2331H28.8623L27.9223 27.8331C27.89 27.7501 27.8332 27.6788 27.7595 27.6288C27.6857 27.5788 27.5985 27.5524 27.5094 27.5532C27.4203 27.554 27.3335 27.5818 27.2606 27.6331C27.1877 27.6843 27.1322 27.7565 27.1013 27.8401L25.8173 31.3031L24.9173 28.7591C24.8896 28.6787 24.8391 28.6081 24.7721 28.5559C24.705 28.5036 24.6242 28.4719 24.5394 28.4647C24.4547 28.4575 24.3697 28.4751 24.2948 28.5153C24.2198 28.5555 24.1582 28.6166 24.1173 28.6911L23.2553 30.2351H21.1923C21.0757 30.2351 20.964 30.2814 20.8815 30.3639C20.7991 30.4463 20.7528 30.5581 20.7528 30.6746C20.7528 30.7912 20.7991 30.903 20.8815 30.9854C20.964 31.0678 21.0757 31.1141 21.1923 31.1141H23.5123C23.5905 31.1142 23.6674 31.0933 23.7349 31.0538C23.8024 31.0142 23.8581 30.9574 23.8963 30.8891L24.4093 29.9691L25.3873 32.7411C25.4173 32.8263 25.4729 32.9002 25.5465 32.9526C25.62 33.005 25.708 33.0335 25.7983 33.0341V33.0341C25.8881 33.0342 25.9757 33.0067 26.0494 32.9554C26.1231 32.904 26.1792 32.8314 26.2103 32.7471L27.5163 29.2261L28.1453 30.8341C28.1775 30.9164 28.2338 30.987 28.3067 31.0368C28.3797 31.0866 28.466 31.1132 28.5543 31.1131H30.9233C31.0399 31.1131 31.1517 31.0668 31.2341 30.9844C31.3165 30.902 31.3628 30.7902 31.3628 30.6736C31.3628 30.5571 31.3165 30.4453 31.2341 30.3629C31.1517 30.2804 31.0399 30.2341 30.9233 30.2341L30.9313 30.2331Z" fill="white"/>
</svg>
