<svg width="58" height="58" viewBox="0 0 58 58" fill="none" xmlns="http://www.w3.org/2000/svg">
<circle cx="29" cy="29" r="29" fill="#C83B53"/>
<path d="M25.9009 14.3091C25.2724 14.3083 24.65 14.4315 24.0692 14.6715C23.4883 14.9116 22.9605 15.2638 22.516 15.7081C22.0715 16.1523 21.7189 16.6799 21.4785 17.2606C21.2381 17.8412 21.1145 18.4636 21.1149 19.0921V22.5091H17.3619C17.2765 22.5087 17.194 22.5403 17.1307 22.5977C17.0674 22.6551 17.0279 22.734 17.0199 22.8191L15.3149 43.3181C15.3125 43.3652 15.3195 43.4123 15.3354 43.4566C15.3513 43.501 15.3759 43.5418 15.4077 43.5766C15.4396 43.6114 15.478 43.6395 15.5207 43.6593C15.5635 43.6792 15.6098 43.6903 15.6569 43.6921H36.1479C36.195 43.6902 36.2412 43.6789 36.2839 43.6591C36.3266 43.6392 36.365 43.6111 36.3968 43.5763C36.4286 43.5415 36.4532 43.5008 36.4692 43.4565C36.4852 43.4122 36.4922 43.3651 36.4899 43.3181L36.4049 42.3251H35.7219L35.7749 43.0081H16.0279L17.6819 23.1921H21.1149V25.9571C20.7002 26.0417 20.3317 26.2773 20.0808 26.6182C19.8299 26.9592 19.7145 27.3811 19.7571 27.8022C19.7996 28.2234 19.997 28.6137 20.311 28.8976C20.6249 29.1814 21.0331 29.3386 21.4564 29.3386C21.8797 29.3386 22.2879 29.1814 22.6019 28.8976C22.9159 28.6137 23.1132 28.2234 23.1558 27.8022C23.1983 27.3811 23.0829 26.9592 22.8321 26.6182C22.5812 26.2773 22.2127 26.0417 21.7979 25.9571V23.1921H29.9979V25.2421H30.6809V23.1921H34.1179L34.2889 25.2421H34.9829L34.7829 22.8181C34.7724 22.734 34.7321 22.6566 34.6694 22.5997C34.6066 22.5428 34.5256 22.5103 34.4409 22.5081H30.6829V19.0921C30.6833 18.4639 30.5599 17.8419 30.3197 17.2615C30.0796 16.6811 29.7274 16.1537 29.2832 15.7095C28.8391 15.2653 28.3118 14.9129 27.7315 14.6727C27.1511 14.4324 26.5291 14.3088 25.9009 14.3091ZM25.9009 14.9921C26.44 14.9898 26.9741 15.0944 27.4726 15.2996C27.971 15.5048 28.4239 15.8068 28.8051 16.1879C29.1862 16.5691 29.4882 17.022 29.6934 17.5204C29.8987 18.0189 30.0032 18.553 30.0009 19.0921V22.5091H21.8009V19.0921C21.7987 18.553 21.9032 18.0189 22.1084 17.5204C22.3137 17.022 22.6156 16.5691 22.9968 16.1879C23.3779 15.8068 23.8308 15.5048 24.3293 15.2996C24.8277 15.0944 25.3619 14.9898 25.9009 14.9921ZM21.4609 26.6091C21.6636 26.6091 21.8618 26.6692 22.0304 26.7818C22.1989 26.8945 22.3303 27.0545 22.4079 27.2418C22.4855 27.4291 22.5058 27.6352 22.4662 27.8341C22.4267 28.0329 22.3291 28.2155 22.1857 28.3589C22.0424 28.5022 21.8597 28.5998 21.6609 28.6394C21.4621 28.6789 21.256 28.6586 21.0687 28.5811C20.8814 28.5035 20.7213 28.3721 20.6087 28.2035C20.496 28.035 20.4359 27.8368 20.4359 27.6341C20.4353 27.4993 20.4613 27.3657 20.5126 27.2411C20.5639 27.1164 20.6393 27.0031 20.7347 26.9078C20.83 26.8125 20.9432 26.737 21.0679 26.6858C21.1925 26.6345 21.3261 26.6084 21.4609 26.6091ZM28.2919 26.2351L26.9259 41.2681C26.9235 41.3152 26.9305 41.3623 26.9464 41.4066C26.9623 41.451 26.9869 41.4918 27.0187 41.5266C27.0506 41.5614 27.089 41.5895 27.1317 41.6093C27.1745 41.6292 27.2208 41.6403 27.2679 41.6421H42.2969C42.344 41.6402 42.3902 41.6289 42.4329 41.6091C42.4756 41.5892 42.514 41.5611 42.5458 41.5263C42.5776 41.4915 42.6022 41.4508 42.6182 41.4065C42.6342 41.3622 42.6412 41.3151 42.6389 41.2681L41.2719 26.2351C41.2614 26.151 41.2211 26.0736 41.1584 26.0167C41.0956 25.9598 41.0146 25.9273 40.9299 25.9251H28.6299C28.545 25.9265 28.4635 25.9587 28.4006 26.0157C28.3377 26.0728 28.2976 26.1507 28.2879 26.2351H28.2919ZM28.9429 26.6091H40.6209L41.9209 40.9591H27.6409L28.9429 26.6091ZM31.3659 27.9761C31.2752 27.9761 31.1882 28.0121 31.1241 28.0763C31.06 28.1404 31.0239 28.2274 31.0239 28.3181V29.6851C31.0239 30.6816 31.4198 31.6374 32.1245 32.342C32.8291 33.0467 33.7849 33.4426 34.7814 33.4426C35.778 33.4426 36.7337 33.0467 37.4384 32.342C38.143 31.6374 38.5389 30.6816 38.5389 29.6851V28.3171C38.5414 28.2707 38.5345 28.2243 38.5184 28.1806C38.5024 28.137 38.4777 28.0971 38.4457 28.0634C38.4137 28.0297 38.3752 28.0028 38.3326 27.9844C38.2899 27.9661 38.2439 27.9566 38.1974 27.9566C38.151 27.9566 38.105 27.9661 38.0623 27.9844C38.0196 28.0028 37.9811 28.0297 37.9491 28.0634C37.9172 28.0971 37.8924 28.137 37.8764 28.1806C37.8604 28.2243 37.8534 28.2707 37.8559 28.3171V29.6841C37.8559 30.4994 37.5321 31.2812 36.9556 31.8577C36.3791 32.4342 35.5972 32.7581 34.7819 32.7581C33.9666 32.7581 33.1848 32.4342 32.6083 31.8577C32.0318 31.2812 31.7079 30.4994 31.7079 29.6841V28.3171C31.7079 28.2264 31.6719 28.1394 31.6078 28.0753C31.5436 28.0111 31.4566 27.9751 31.3659 27.9751V27.9761Z" fill="white"/>
<path d="M15.6014 44C15.5183 43.9983 15.4364 43.9797 15.3607 43.9455C15.285 43.9112 15.217 43.8619 15.1609 43.8005C15.1048 43.7392 15.0618 43.6671 15.0344 43.5886C15.0069 43.5102 14.9957 43.4269 15.0014 43.344L16.7154 22.775C16.729 22.6254 16.7981 22.4863 16.9092 22.3852C17.0203 22.2841 17.1652 22.2284 17.3154 22.229H20.8334V19.057C20.8334 17.7158 21.3662 16.4295 22.3146 15.4812C23.263 14.5328 24.5492 14 25.8904 14C27.2316 14 28.5179 14.5328 29.4663 15.4812C30.4147 16.4295 30.9474 17.7158 30.9474 19.057V22.228H34.4644C34.6136 22.23 34.7568 22.2864 34.8673 22.3866C34.9778 22.4867 35.0479 22.6238 35.0644 22.772L35.2914 25.485H34.0744L33.9034 23.428H30.9464V25.485H29.7464V23.429H22.0324V25.75C22.4803 25.8931 22.8622 26.1916 23.1093 26.5915C23.3563 26.9915 23.4523 27.4666 23.3799 27.9311C23.3075 28.3956 23.0714 28.8189 22.7143 29.1247C22.3572 29.4304 21.9026 29.5985 21.4324 29.5985C20.9623 29.5985 20.5077 29.4304 20.1506 29.1247C19.7935 28.8189 19.5574 28.3956 19.485 27.9311C19.4126 27.4666 19.5085 26.9915 19.7556 26.5915C20.0027 26.1916 20.3846 25.8931 20.8324 25.75V23.43H17.8754L16.2564 42.8H35.5224L35.4684 42.114H36.6684L36.7744 43.346C36.7797 43.4287 36.7682 43.5117 36.7406 43.5899C36.713 43.668 36.6699 43.7398 36.6139 43.8009C36.5578 43.862 36.49 43.9111 36.4145 43.9453C36.339 43.9796 36.2573 43.9981 36.1744 44H15.6014ZM17.3184 22.743C17.3071 22.7427 17.2958 22.7447 17.2853 22.7489C17.2748 22.753 17.2652 22.7593 17.257 22.7672C17.2489 22.7751 17.2425 22.7846 17.2381 22.795C17.2337 22.8054 17.2314 22.8167 17.2314 22.828L15.5174 43.389C15.5174 43.4009 15.5198 43.4128 15.5244 43.4237C15.5291 43.4347 15.5359 43.4447 15.5444 43.453C15.559 43.4707 15.5797 43.4821 15.6024 43.485H36.1754C36.1989 43.482 36.2204 43.4702 36.2354 43.452C36.2516 43.4358 36.261 43.4139 36.2614 43.391L36.1964 42.628H36.0244L36.0774 43.314H15.6994L17.3994 22.914H21.3464V26.156L21.1414 26.198C20.7876 26.2701 20.4732 26.4711 20.2591 26.7619C20.045 27.0527 19.9466 27.4126 19.9828 27.7719C20.019 28.1312 20.1874 28.4642 20.4553 28.7064C20.7231 28.9486 21.0713 29.0826 21.4324 29.0826C21.7935 29.0826 22.1418 28.9486 22.4096 28.7064C22.6775 28.4642 22.8458 28.1312 22.8821 27.7719C22.9183 27.4126 22.8199 27.0527 22.6058 26.7619C22.3917 26.4711 22.0773 26.2701 21.7234 26.198L21.5184 26.156V22.914H30.2564V24.971H30.4274V22.914H34.3764L34.5474 24.971H34.7274L34.5474 22.817C34.5425 22.7974 34.5318 22.7797 34.5166 22.7663C34.5014 22.7529 34.4825 22.7444 34.4624 22.742H30.4324V19.057C30.4324 17.8521 29.9538 16.6966 29.1018 15.8446C28.2499 14.9926 27.0943 14.514 25.8894 14.514C24.6846 14.514 23.529 14.9926 22.6771 15.8446C21.8251 16.6966 21.3464 17.8521 21.3464 19.057V22.743H17.3184ZM27.2584 41.943C27.1753 41.9413 27.0934 41.9227 27.0177 41.8885C26.942 41.8542 26.874 41.8049 26.8179 41.7435C26.7618 41.6822 26.7188 41.6101 26.6914 41.5316C26.6639 41.4532 26.6527 41.3699 26.6584 41.287L28.0324 26.187C28.0504 26.0424 28.1204 25.9093 28.2293 25.8125C28.3383 25.7157 28.4787 25.6618 28.6244 25.661H40.9744C41.1236 25.663 41.2668 25.7194 41.3773 25.8196C41.4878 25.9197 41.5579 26.0568 41.5744 26.205L42.9454 41.291C42.951 41.3739 42.9397 41.4571 42.9122 41.5355C42.8848 41.6139 42.8417 41.6859 42.7856 41.7472C42.7296 41.8085 42.6616 41.8578 42.586 41.8922C42.5103 41.9265 42.4285 41.9452 42.3454 41.947H27.2564L27.2584 41.943ZM28.5444 26.26L27.1744 41.334C27.1753 41.3573 27.1843 41.3795 27.1998 41.3968C27.2154 41.4141 27.2364 41.4255 27.2594 41.429H42.3464C42.3699 41.426 42.3914 41.4142 42.4064 41.396C42.4226 41.3798 42.432 41.3579 42.4324 41.335L41.0614 26.25C41.0569 26.23 41.0463 26.2119 41.0311 26.1981C41.0159 26.1843 40.9968 26.1756 40.9764 26.173H28.6324C28.5754 26.172 28.5564 26.218 28.5444 26.26ZM42.2534 41.26H27.3564L28.7104 26.346H40.8994L42.2534 41.26ZM27.9174 40.746H41.6904L40.4304 26.86H29.1774L27.9174 40.746ZM34.8034 33.717C33.7352 33.7159 32.711 33.2911 31.9557 32.5358C31.2003 31.7804 30.7755 30.7562 30.7744 29.688V28.314C30.7744 28.1549 30.8377 28.0023 30.9502 27.8897C31.0627 27.7772 31.2153 27.714 31.3744 27.714C31.5336 27.714 31.6862 27.7772 31.7987 27.8897C31.9112 28.0023 31.9744 28.1549 31.9744 28.314V29.685C31.9674 30.0609 32.0353 30.4345 32.1743 30.7838C32.3133 31.1332 32.5205 31.4513 32.7838 31.7197C33.0472 31.988 33.3614 32.2012 33.7081 32.3467C34.0547 32.4922 34.427 32.5672 34.8029 32.5672C35.1789 32.5672 35.5511 32.4922 35.8978 32.3467C36.2445 32.2012 36.5587 31.988 36.8221 31.7197C37.0854 31.4513 37.2926 31.1332 37.4316 30.7838C37.5706 30.4345 37.6385 30.0609 37.6314 29.685V28.314C37.6314 28.1549 37.6947 28.0023 37.8072 27.8897C37.9197 27.7772 38.0723 27.714 38.2314 27.714C38.3906 27.714 38.5432 27.7772 38.6557 27.8897C38.7682 28.0023 38.8314 28.1549 38.8314 28.314V29.685C38.8304 30.7531 38.4057 31.7771 37.6506 32.5324C36.8954 33.2877 35.8715 33.7127 34.8034 33.714V33.717ZM31.3744 28.231C31.3516 28.231 31.3298 28.2401 31.3136 28.2562C31.2975 28.2723 31.2884 28.2942 31.2884 28.317V29.688C31.2884 30.6201 31.6587 31.514 32.3178 32.1731C32.9769 32.8322 33.8708 33.2025 34.8029 33.2025C35.7351 33.2025 36.629 32.8322 37.2881 32.1731C37.9472 31.514 38.3174 30.6201 38.3174 29.688V28.314C38.3174 28.219 38.1464 28.219 38.1464 28.314V29.685C38.1464 30.5716 37.7942 31.4219 37.1673 32.0489C36.5404 32.6758 35.6901 33.028 34.8034 33.028C33.9168 33.028 33.0665 32.6758 32.4396 32.0489C31.8127 31.4219 31.4604 30.5716 31.4604 29.685V28.314C31.4602 28.2915 31.4511 28.2701 31.4353 28.2542C31.4194 28.2383 31.3979 28.2293 31.3754 28.229L31.3744 28.231ZM21.4314 28.917C21.1771 28.917 20.9285 28.8416 20.717 28.7003C20.5055 28.559 20.3407 28.3581 20.2433 28.1231C20.146 27.8881 20.1205 27.6296 20.1702 27.3801C20.2198 27.1307 20.3423 26.9015 20.5221 26.7217C20.702 26.5418 20.9311 26.4193 21.1806 26.3697C21.43 26.3201 21.6886 26.3456 21.9236 26.4429C22.1586 26.5402 22.3594 26.7051 22.5007 26.9165C22.642 27.128 22.7174 27.3767 22.7174 27.631C22.7164 27.9713 22.5806 28.2973 22.3398 28.5378C22.099 28.7782 21.7727 28.9135 21.4324 28.914L21.4314 28.917ZM21.4314 26.86C21.279 26.86 21.1299 26.9052 21.0031 26.9899C20.8763 27.0747 20.7775 27.1951 20.7191 27.336C20.6608 27.4768 20.6455 27.6319 20.6753 27.7814C20.705 27.931 20.7784 28.0684 20.8863 28.1762C20.9941 28.284 21.1315 28.3574 21.281 28.3872C21.4306 28.4169 21.5856 28.4017 21.7265 28.3433C21.8674 28.285 21.9878 28.1861 22.0725 28.0593C22.1572 27.9326 22.2024 27.7835 22.2024 27.631C22.2039 27.5293 22.185 27.4283 22.1469 27.334C22.1088 27.2397 22.0522 27.154 21.9804 27.0818C21.9087 27.0097 21.8233 26.9527 21.7292 26.9141C21.635 26.8755 21.5342 26.8561 21.4324 26.857L21.4314 26.86ZM30.2564 22.743H21.5184V19.057C21.5184 17.8976 21.979 16.7857 22.7988 15.9659C23.6186 15.1461 24.7306 14.6855 25.8899 14.6855C27.0493 14.6855 28.1612 15.1461 28.9811 15.9659C29.8009 16.7857 30.2614 17.8976 30.2614 19.057L30.2564 22.743ZM22.0274 22.229H29.7464V19.057C29.7464 18.0341 29.3401 17.053 28.6168 16.3297C27.8934 15.6064 26.9124 15.2 25.8894 15.2C24.8665 15.2 23.8855 15.6064 23.1621 16.3297C22.4388 17.053 22.0324 18.0341 22.0324 19.057L22.0274 22.229Z" fill="white"/>
</svg>
