<svg width="58" height="58" viewBox="0 0 58 58" fill="none" xmlns="http://www.w3.org/2000/svg">
<circle cx="29" cy="29" r="29" fill="#C83B53"/>
<path d="M13.4688 36.802C13.7275 36.802 13.9375 36.5923 13.9375 36.3333V22.6807H41.6331V27.8333C41.6331 28.0923 41.843 28.302 42.1018 28.302C42.3608 28.302 42.5706 28.0923 42.5706 27.8333V18.5693C42.5706 16.9978 41.292 15.7192 39.7207 15.7192H38.4915V15.1387C38.4915 14.5107 37.9807 14 37.3528 14H36.4819C35.8542 14 35.3435 14.5107 35.3435 15.1387V15.7192H32.2346V15.1387C32.2346 14.5107 31.7239 14 31.0959 14H30.2251C29.5974 14 29.0867 14.5107 29.0867 15.1387V15.7192H25.9775V15.1387C25.9775 14.5107 25.4668 14 24.8389 14H23.9683C23.3403 14 22.8296 14.5107 22.8296 15.1387V15.7192H19.7207V15.1387C19.7207 14.5107 19.21 14 18.582 14H17.7114C17.0835 14 16.5728 14.5107 16.5728 15.1387V15.7192H15.8501C14.2786 15.7192 13 16.9978 13 18.5693V36.3333C13 36.5923 13.21 36.802 13.4688 36.802ZM36.281 15.1387C36.281 15.0278 36.3713 14.9375 36.4822 14.9375H37.353C37.4639 14.9375 37.554 15.0278 37.554 15.1387V17.416C37.554 17.5269 37.4639 17.6172 37.353 17.6172H36.4822C36.3713 17.6172 36.281 17.5271 36.281 17.416V15.1387ZM30.0242 15.1387C30.0242 15.0278 30.1143 14.9375 30.2251 14.9375H31.0959C31.2068 14.9375 31.2971 15.0278 31.2971 15.1387V17.416C31.2971 17.5269 31.2068 17.6172 31.0959 17.6172H30.2251C30.1143 17.6172 30.0242 17.5271 30.0242 17.416V15.1387ZM23.7671 15.1387C23.7671 15.0278 23.8574 14.9375 23.9683 14.9375H24.8391C24.95 14.9375 25.0403 15.0278 25.0403 15.1387V17.416C25.0403 17.5269 24.95 17.6172 24.8391 17.6172H23.9683C23.8574 17.6172 23.7671 17.5271 23.7671 17.416V15.1387ZM17.5103 15.1387C17.5103 15.0278 17.6006 14.9375 17.7114 14.9375H18.5823C18.6931 14.9375 18.7832 15.0278 18.7832 15.1387V17.416C18.7832 17.5269 18.6931 17.6172 18.5823 17.6172H17.7114C17.6006 17.6172 17.5103 17.5271 17.5103 17.416V15.1387ZM15.8501 16.6567H16.5728V17.416C16.5728 18.0439 17.0835 18.5547 17.7114 18.5547H18.5823C19.21 18.5547 19.7207 18.0439 19.7207 17.416V16.6567H22.8298V17.416C22.8298 18.0439 23.3406 18.5547 23.9683 18.5547H24.8391C25.467 18.5547 25.9778 18.0439 25.9778 17.416V16.6567H29.0867V17.416C29.0867 18.0439 29.5974 18.5547 30.2253 18.5547H31.0962C31.7239 18.5547 32.2346 18.0439 32.2346 17.416V16.6567H35.3435V17.416C35.3435 18.0439 35.8542 18.5547 36.4822 18.5547H37.353C37.9807 18.5547 38.4915 18.0439 38.4915 17.416V16.6567H39.7207C40.7754 16.6567 41.6333 17.5146 41.6333 18.5693V21.7432H13.9375V18.5693C13.9375 17.5146 14.7954 16.6567 15.8501 16.6567Z" fill="white"/>
<path d="M18.3069 41.1614H14.2195C14.064 41.1614 13.9375 41.0349 13.9375 40.8794V38.4695C13.9375 38.2104 13.7275 38.0007 13.4688 38.0007C13.21 38.0007 13 38.2104 13 38.4695V40.8794C13 41.5518 13.5471 42.0989 14.2195 42.0989H18.3069C18.5657 42.0989 18.7756 41.8889 18.7756 41.6301C18.7756 41.3711 18.5657 41.1614 18.3069 41.1614Z" fill="white"/>
<path d="M18.2915 24.0476H16.6621C16.4033 24.0476 16.1934 24.2576 16.1934 24.5164C16.1934 24.7754 16.4033 24.9851 16.6621 24.9851H18.2915C18.5503 24.9851 18.7603 24.7754 18.7603 24.5164C18.7603 24.2576 18.5503 24.0476 18.2915 24.0476Z" fill="white"/>
<path d="M21.6689 24.9851H23.2983C23.5571 24.9851 23.7671 24.7754 23.7671 24.5164C23.7671 24.2576 23.5571 24.0476 23.2983 24.0476H21.6689C21.4102 24.0476 21.2002 24.2576 21.2002 24.5164C21.2002 24.7754 21.4102 24.9851 21.6689 24.9851Z" fill="white"/>
<path d="M26.6768 24.9851H28.3059C28.5647 24.9851 28.7747 24.7754 28.7747 24.5164C28.7747 24.2576 28.5647 24.0476 28.3059 24.0476H26.6768C26.4177 24.0476 26.208 24.2576 26.208 24.5164C26.208 24.7754 26.4177 24.9851 26.6768 24.9851Z" fill="white"/>
<path d="M31.6836 24.9851H33.313C33.5718 24.9851 33.7817 24.7754 33.7817 24.5164C33.7817 24.2576 33.5718 24.0476 33.313 24.0476H31.6836C31.4248 24.0476 31.2148 24.2576 31.2148 24.5164C31.2148 24.7754 31.4248 24.9851 31.6836 24.9851Z" fill="white"/>
<path d="M38.3196 24.0476H36.6904C36.4314 24.0476 36.2217 24.2576 36.2217 24.5164C36.2217 24.7754 36.4314 24.9851 36.6904 24.9851H38.3196C38.5784 24.9851 38.7883 24.7754 38.7883 24.5164C38.7883 24.2576 38.5784 24.0476 38.3196 24.0476Z" fill="white"/>
<path d="M18.2915 26.4048H16.6621C16.4033 26.4048 16.1934 26.6145 16.1934 26.8735C16.1934 27.1326 16.4033 27.3423 16.6621 27.3423H18.2915C18.5503 27.3423 18.7603 27.1326 18.7603 26.8735C18.7603 26.6145 18.5503 26.4048 18.2915 26.4048Z" fill="white"/>
<path d="M21.6689 27.3423H23.2983C23.5571 27.3423 23.7671 27.1326 23.7671 26.8735C23.7671 26.6145 23.5571 26.4048 23.2983 26.4048H21.6689C21.4102 26.4048 21.2002 26.6145 21.2002 26.8735C21.2002 27.1326 21.4102 27.3423 21.6689 27.3423Z" fill="white"/>
<path d="M26.6768 27.3423H28.3059C28.5647 27.3423 28.7747 27.1326 28.7747 26.8735C28.7747 26.6145 28.5647 26.4048 28.3059 26.4048H26.6768C26.4177 26.4048 26.208 26.6145 26.208 26.8735C26.208 27.1326 26.4177 27.3423 26.6768 27.3423Z" fill="white"/>
<path d="M31.6836 27.3423H33.313C33.5718 27.3423 33.7817 27.1326 33.7817 26.8735C33.7817 26.6145 33.5718 26.4048 33.313 26.4048H31.6836C31.4248 26.4048 31.2148 26.6145 31.2148 26.8735C31.2148 27.1326 31.4248 27.3423 31.6836 27.3423Z" fill="white"/>
<path d="M38.3196 26.4048H36.6904C36.4314 26.4048 36.2217 26.6145 36.2217 26.8735C36.2217 27.1326 36.4314 27.3423 36.6904 27.3423H38.3196C38.5784 27.3423 38.7883 27.1326 38.7883 26.8735C38.7883 26.6145 38.5784 26.4048 38.3196 26.4048Z" fill="white"/>
<path d="M21.6805 36.5447L24.0906 38.9548C24.4392 39.3035 24.9026 39.4954 25.3958 39.4954C25.8889 39.4954 26.3526 39.3035 26.701 38.9548L33.3013 32.3545C34.021 31.6348 34.021 30.4636 33.3013 29.7439C32.5816 29.0242 31.4104 29.0242 30.6907 29.7439L25.3958 35.0388L24.2908 33.9341C23.5713 33.2144 22.4002 33.2144 21.6802 33.9341C20.9607 34.6538 20.9607 35.825 21.6805 36.5447ZM22.3433 34.5969C22.5203 34.4199 22.753 34.3313 22.9856 34.3313C23.2183 34.3313 23.451 34.4199 23.628 34.5969L25.0642 36.0332C25.2473 36.2163 25.544 36.2163 25.7271 36.0332L31.3535 30.407C31.708 30.0527 32.2842 30.0527 32.6382 30.4067C32.9925 30.761 32.9925 31.3374 32.6382 31.6917L26.0381 38.2917C25.8665 38.4634 25.6385 38.5579 25.3958 38.5579C25.1531 38.5579 24.9251 38.4634 24.7534 38.2917L22.3433 35.8816C21.989 35.5273 21.989 34.9512 22.3433 34.5969Z" fill="white"/>
<path d="M42.571 33.71V29.9695C42.571 29.7104 42.3613 29.5007 42.1023 29.5007C41.8435 29.5007 41.6335 29.7104 41.6335 29.9695V33.1121C40.7788 32.6689 39.8088 32.4182 38.7815 32.4182C35.3523 32.4182 32.5625 35.208 32.5625 38.6372C32.5625 39.5354 32.7542 40.3894 33.0981 41.1614H20.4434C20.1846 41.1614 19.9746 41.3711 19.9746 41.6301C19.9746 41.8889 20.1846 42.0989 20.4434 42.0989H33.6174C34.7349 43.7607 36.6326 44.8562 38.7815 44.8562C42.2107 44.8562 45.0005 42.0664 45.0005 38.6372C45.0005 36.6333 44.0474 34.8479 42.571 33.71ZM38.7815 43.9187C35.8691 43.9187 33.5 41.5496 33.5 38.6372C33.5 35.7249 35.8694 33.3557 38.7815 33.3557C41.6936 33.3557 44.063 35.7249 44.063 38.6372C44.063 41.5496 41.6936 43.9187 38.7815 43.9187Z" fill="white"/>
<path d="M38.781 34.033C36.2422 34.033 34.1768 36.0986 34.1768 38.6372C34.1768 41.176 36.2422 43.2415 38.781 43.2415C41.3198 43.2415 43.385 41.176 43.385 38.6372C43.385 36.0986 41.3196 34.033 38.781 34.033ZM39.2007 42.2791C39.2317 42.2163 39.2498 42.146 39.2498 42.0713V41.5002C39.2498 41.2415 39.0398 41.0315 38.781 41.0315C38.5222 41.0315 38.3123 41.2415 38.3123 41.5002V42.0713C38.3123 42.146 38.3301 42.2163 38.3613 42.2791C36.6743 42.0859 35.3323 40.7439 35.1392 39.0569C35.2017 39.0881 35.2722 39.106 35.3469 39.106H35.9177C36.1768 39.106 36.3865 38.8962 36.3865 38.6372C36.3865 38.3782 36.1768 38.1685 35.9177 38.1685H35.3469C35.2722 38.1685 35.2017 38.1865 35.1392 38.2175C35.3323 36.5305 36.6743 35.1885 38.3613 34.9954C38.3301 35.0581 38.3123 35.1284 38.3123 35.2031V35.7742C38.3123 36.0332 38.5222 36.2429 38.781 36.2429C39.0398 36.2429 39.2498 36.0332 39.2498 35.7742V35.2031C39.2498 35.1284 39.2317 35.0581 39.2007 34.9954C40.8877 35.1885 42.2297 36.5305 42.4229 38.2175C42.3601 38.1865 42.2898 38.1685 42.2151 38.1685H41.644C41.3853 38.1685 41.1753 38.3782 41.1753 38.6372C41.1753 38.8962 41.3853 39.106 41.644 39.106H42.2151C42.2898 39.106 42.3601 39.0881 42.4229 39.0569C42.2295 40.7439 40.8877 42.0859 39.2007 42.2791Z" fill="white"/>
<path d="M39.8145 38.1685H39.25V37.6877C39.25 37.429 39.04 37.219 38.7812 37.219C38.5222 37.219 38.3125 37.429 38.3125 37.6877V38.6372C38.3125 38.8962 38.5222 39.106 38.7812 39.106H39.8145C40.0732 39.106 40.2832 38.8962 40.2832 38.6372C40.2832 38.3782 40.0732 38.1685 39.8145 38.1685Z" fill="white"/>
</svg>
