<svg width="69" height="69" viewBox="0 0 69 69" fill="none" xmlns="http://www.w3.org/2000/svg">
<circle cx="34.4508" cy="34.4508" r="29" transform="rotate(-167.858 34.4508 34.4508)" fill="#C83B53"/>
<path d="M37.5211 33.3497C37.3251 33.3517 37.1318 33.3943 36.9531 33.4747H33.7591L33.5331 32.7217H37.9591C38.1497 32.7245 38.336 32.6655 38.4903 32.5535C38.6446 32.4416 38.7585 32.2827 38.8151 32.1007L39.8341 28.5287C39.8703 28.4035 39.8753 28.2714 39.8488 28.1439C39.8224 28.0163 39.7651 27.8971 39.6821 27.7967C39.5974 27.6929 39.4906 27.6093 39.3695 27.5521C39.2484 27.4948 39.116 27.4653 38.9821 27.4657H32.0411C32.0151 27.4657 31.9921 27.4807 31.9661 27.4817L31.6181 26.3187C31.5832 26.2111 31.5148 26.1175 31.4228 26.0516C31.3309 25.9857 31.2202 25.9511 31.1071 25.9527H29.6371C29.5007 25.9495 29.3685 26.0002 29.2693 26.0938C29.1701 26.1874 29.1118 26.3164 29.1071 26.4527C29.1105 26.5899 29.1682 26.7202 29.2676 26.8149C29.367 26.9096 29.4999 26.9609 29.6371 26.9577H30.7061L32.6451 33.4257C32.3747 33.4996 32.1355 33.6589 31.963 33.8798C31.7906 34.1007 31.6941 34.3715 31.6881 34.6517C31.6962 35.0074 31.8452 35.3453 32.1022 35.5913C32.3592 35.8373 32.7034 35.9712 33.0591 35.9637C33.4143 35.972 33.7583 35.8393 34.0158 35.5945C34.2734 35.3497 34.4234 35.0129 34.4331 34.6577C34.4248 34.5986 34.4124 34.5401 34.3961 34.4827H36.1781C36.1617 34.5401 36.1494 34.5986 36.1411 34.6577C36.1508 35.0129 36.3008 35.3497 36.5583 35.5945C36.8159 35.8393 37.1599 35.972 37.5151 35.9637C37.8703 35.972 38.2143 35.8393 38.4718 35.5945C38.7294 35.3497 38.8794 35.0129 38.8891 34.6577C38.8807 34.303 38.732 33.9661 38.4755 33.7209C38.2191 33.4757 37.8758 33.3422 37.5211 33.3497V33.3497ZM38.7531 28.4767L37.8291 31.7137H33.2491L32.2751 28.4767H38.7531ZM33.0641 34.9567C33.0238 34.9576 32.9838 34.9506 32.9462 34.936C32.9087 34.9214 32.8744 34.8996 32.8453 34.8717C32.8162 34.8438 32.7929 34.8105 32.7768 34.7736C32.7606 34.7367 32.7519 34.697 32.7511 34.6567C32.7519 34.6164 32.7606 34.5767 32.7768 34.5398C32.7929 34.5029 32.8162 34.4696 32.8453 34.4417C32.8744 34.4138 32.9087 34.392 32.9462 34.3774C32.9838 34.3628 33.0238 34.3558 33.0641 34.3567C33.1453 34.3551 33.2239 34.3858 33.2826 34.442C33.3413 34.4983 33.3752 34.5755 33.3771 34.6567C33.3761 34.6973 33.367 34.7373 33.3504 34.7743C33.3338 34.8114 33.3101 34.8448 33.2805 34.8726C33.2509 34.9004 33.2161 34.922 33.1781 34.9363C33.1401 34.9506 33.0997 34.9572 33.0591 34.9557L33.0641 34.9567ZM37.5211 34.9567C37.4398 34.9583 37.3612 34.9276 37.3026 34.8714C37.2439 34.8152 37.2099 34.738 37.2081 34.6567C37.2099 34.5755 37.2439 34.4983 37.3026 34.442C37.3612 34.3858 37.4398 34.3551 37.5211 34.3567C37.5614 34.3558 37.6014 34.3628 37.639 34.3774C37.6765 34.392 37.7108 34.4138 37.7399 34.4417C37.769 34.4696 37.7922 34.5029 37.8084 34.5398C37.8246 34.5767 37.8333 34.6164 37.8341 34.6567C37.8332 34.6969 37.8244 34.7365 37.8081 34.7733C37.7919 34.8101 37.7686 34.8433 37.7395 34.8711C37.7105 34.8988 37.6762 34.9206 37.6387 34.9351C37.6012 34.9496 37.5613 34.9566 37.5211 34.9557V34.9567Z" fill="white"/>
<path d="M36.2571 39.8677C36.2571 40.1467 35.9511 40.3727 35.5731 40.3727H27.2951C26.9171 40.3727 26.6111 40.1467 26.6111 39.8677C26.6111 39.5887 26.9171 39.3677 27.2951 39.3677H35.5721C35.9501 39.3637 36.2571 39.5907 36.2571 39.8677Z" fill="white"/>
<path d="M42.3641 39.8677C42.3641 40.1467 42.0581 40.3727 41.6811 40.3727H39.5061C39.1281 40.3727 38.8221 40.1467 38.8221 39.8677C38.8221 39.5887 39.1281 39.3677 39.5061 39.3677H41.6771C42.0581 39.3637 42.3641 39.5907 42.3641 39.8677Z" fill="white"/>
<path d="M36.2571 42.2967C36.2571 42.5747 35.9511 42.7967 35.5731 42.7967H27.2951C26.9171 42.7967 26.6111 42.5707 26.6111 42.2967C26.6111 42.0227 26.9171 41.7917 27.2951 41.7917H35.5721C35.9501 41.7917 36.2571 42.0167 36.2571 42.2967Z" fill="white"/>
<path d="M42.3641 42.2967C42.3641 42.5747 42.0581 42.7967 41.6811 42.7967H39.5061C39.1281 42.7967 38.8221 42.5707 38.8221 42.2967C38.8221 42.0227 39.1281 41.7917 39.5061 41.7917H41.6771C42.0581 41.7917 42.3641 42.0167 42.3641 42.2967Z" fill="white"/>
<path d="M36.2571 44.5347C36.2571 44.8127 35.9511 45.0347 35.5731 45.0347H27.2951C26.9171 45.0347 26.6111 44.8087 26.6111 44.5347C26.6111 44.2607 26.9171 44.0347 27.2951 44.0347H35.5721C35.9501 44.0307 36.2571 44.2557 36.2571 44.5347Z" fill="white"/>
<path d="M42.3641 44.5347C42.3641 44.8127 42.0581 45.0347 41.6811 45.0347H39.5061C39.1281 45.0347 38.8221 44.8087 38.8221 44.5347C38.8221 44.2607 39.1281 44.0347 39.5061 44.0347H41.6771C42.0581 44.0307 42.3641 44.2557 42.3641 44.5347Z" fill="white"/>
<path d="M47.3081 23.6257L46.0081 22.5807C45.8627 22.4996 45.6998 22.4552 45.5334 22.4512C45.367 22.4471 45.2022 22.4837 45.0531 22.5577L43.5881 23.3367L42.3881 22.5837C42.2424 22.5017 42.0789 22.4565 41.9118 22.452C41.7447 22.4475 41.579 22.4837 41.4291 22.5577L39.9651 23.3367L38.7651 22.5837C38.6195 22.5015 38.456 22.4561 38.2888 22.4516C38.1217 22.4471 37.9559 22.4835 37.8061 22.5577L36.3421 23.3367L35.1421 22.5837C34.9966 22.5017 34.8333 22.4564 34.6663 22.4519C34.4993 22.4473 34.3338 22.4837 34.1841 22.5577L32.7161 23.3367L31.5161 22.5837C31.3707 22.5018 31.2076 22.4566 31.0408 22.4521C30.874 22.4476 30.7087 22.4838 30.5591 22.5577L29.0941 23.3367L27.8941 22.5837C27.7485 22.5019 27.5852 22.4568 27.4183 22.4522C27.2514 22.4477 27.0859 22.4839 26.9361 22.5577L25.4711 23.3367L24.2711 22.5837C24.1257 22.5018 23.9626 22.4566 23.7958 22.4521C23.629 22.4476 23.4637 22.4838 23.3141 22.5577L21.7141 23.6027C21.6418 23.6322 21.579 23.681 21.5326 23.7438C21.4862 23.8066 21.458 23.8809 21.4511 23.9587V47.8707C21.4577 47.9489 21.4857 48.0238 21.5321 48.0872C21.5785 48.1505 21.6415 48.1998 21.7141 48.2297L23.3141 49.2747C23.4562 49.3459 23.6132 49.3823 23.7721 49.3807C23.9478 49.3831 24.1208 49.3371 24.2721 49.2477L25.4721 48.4947L26.9361 49.2737C27.0782 49.3449 27.2352 49.3813 27.3941 49.3797C27.5698 49.3821 27.7428 49.3361 27.8941 49.2467L29.0941 48.4937L30.5581 49.2727C30.7002 49.3448 30.8577 49.3816 31.0171 49.3797C31.1928 49.3821 31.3658 49.3361 31.5171 49.2467L32.7171 48.4937L34.1821 49.2727C34.3242 49.3439 34.4812 49.3803 34.6401 49.3787C34.8158 49.3811 34.9888 49.3351 35.1401 49.2457L36.3401 48.4927L37.8041 49.2717C37.9462 49.3429 38.1032 49.3793 38.2621 49.3777C38.4378 49.3801 38.6108 49.3341 38.7621 49.2447L39.9621 48.4917L41.4261 49.2707C41.5678 49.3429 41.725 49.3796 41.8841 49.3777C42.0598 49.3801 42.2328 49.3341 42.3841 49.2447L43.5841 48.4917L45.0481 49.2707C45.1905 49.3421 45.3478 49.3784 45.5071 49.3767C45.6828 49.3788 45.8556 49.3328 46.0071 49.2437L47.3071 48.1987C47.3686 48.1665 47.4209 48.1191 47.4589 48.061C47.4969 48.0029 47.5193 47.936 47.5241 47.8667V23.9577C47.521 23.8881 47.4994 23.8206 47.4614 23.7622C47.4234 23.7039 47.3705 23.6567 47.3081 23.6257V23.6257ZM46.4501 47.6757L45.4691 48.2927L44.0051 47.5137C43.9726 47.5 43.9392 47.4886 43.9051 47.4797C43.8663 47.4633 43.8266 47.4493 43.7861 47.4377C43.7354 47.4269 43.6839 47.4202 43.6321 47.4177C43.5951 47.4177 43.5591 47.4107 43.5211 47.4107C43.4674 47.4127 43.4139 47.4187 43.3611 47.4287C43.3261 47.4357 43.2891 47.4397 43.2551 47.4487C43.2089 47.4638 43.164 47.4829 43.1211 47.5057C43.0935 47.5145 43.0668 47.5255 43.0411 47.5387L41.8411 48.2917L40.3761 47.5127C40.3437 47.4988 40.3103 47.4874 40.2761 47.4787C40.2378 47.4622 40.1984 47.4485 40.1581 47.4377C40.1067 47.427 40.0545 47.4203 40.0021 47.4177C39.9641 47.4177 39.9291 47.4107 39.8911 47.4107C39.8374 47.4127 39.7839 47.4187 39.7311 47.4287C39.6941 47.4357 39.6581 47.4407 39.6231 47.4487C39.5773 47.4642 39.5328 47.4832 39.4901 47.5057C39.4625 47.5145 39.4358 47.5255 39.4101 47.5387L38.2101 48.2907L36.7461 47.5117C36.715 47.4991 36.6833 47.4881 36.6511 47.4787C36.6124 47.4624 36.5726 47.4487 36.5321 47.4377C36.4814 47.4264 36.4299 47.4191 36.3781 47.4157C36.3401 47.4157 36.3051 47.4087 36.2671 47.4087C36.2133 47.4109 36.1599 47.4173 36.1071 47.4277C36.0711 47.4323 36.0353 47.439 36.0001 47.4477C35.9537 47.4619 35.9088 47.4807 35.8661 47.5037C35.8391 47.5134 35.8127 47.5247 35.7871 47.5377L34.5871 48.2897L33.1231 47.5107C33.092 47.4981 33.0603 47.4871 33.0281 47.4777C32.9897 47.4606 32.9499 47.4469 32.9091 47.4367C32.8577 47.4254 32.8056 47.418 32.7531 47.4147C32.7151 47.4147 32.6781 47.4077 32.6421 47.4077C32.5883 47.4099 32.5348 47.4162 32.4821 47.4267C32.4441 47.4337 32.4091 47.4377 32.3741 47.4467C32.3271 47.4615 32.2816 47.4806 32.2381 47.5037C32.2115 47.5125 32.1858 47.5235 32.1611 47.5367L30.9611 48.2887L29.4971 47.5097C29.4671 47.4947 29.4321 47.4897 29.3971 47.4767C29.3591 47.4594 29.3196 47.4457 29.2791 47.4357C29.2278 47.4242 29.1756 47.4168 29.1231 47.4137C29.0861 47.4137 29.0501 47.4067 29.0131 47.4067C28.9593 47.4089 28.9058 47.4152 28.8531 47.4257C28.8167 47.4303 28.7807 47.437 28.7451 47.4457C28.6987 47.4599 28.6538 47.4787 28.6111 47.5017C28.5837 47.5114 28.557 47.5227 28.5311 47.5357L27.3311 48.2877L25.8661 47.5087C25.8351 47.4959 25.8034 47.4849 25.7711 47.4757C25.7328 47.4582 25.693 47.4445 25.6521 47.4347C25.6007 47.4233 25.5486 47.4159 25.4961 47.4127C25.4581 47.4127 25.4231 47.4057 25.3851 47.4057C25.3314 47.408 25.2779 47.4144 25.2251 47.4247C25.1881 47.4317 25.1521 47.4357 25.1171 47.4447C25.0719 47.4601 25.0281 47.4792 24.9861 47.5017C24.9582 47.5105 24.9311 47.5215 24.9051 47.5347L23.7051 48.2877L22.5051 47.6497V24.1757L23.7051 23.5377L24.9051 24.2897C24.9468 24.3119 24.9903 24.3307 25.0351 24.3457C25.065 24.3602 25.0957 24.3729 25.1271 24.3837C25.2054 24.4031 25.2855 24.4141 25.3661 24.4167C25.3811 24.4167 25.3941 24.4217 25.4081 24.4217C25.4221 24.4224 25.4361 24.4224 25.4501 24.4217C25.5222 24.4199 25.5939 24.4105 25.6641 24.3937C25.6921 24.3857 25.7171 24.3737 25.7441 24.3637C25.7845 24.3524 25.8239 24.3381 25.8621 24.3207L27.3271 23.5417L28.5271 24.2947C28.5688 24.317 28.6123 24.3357 28.6571 24.3507C28.6881 24.3617 28.7151 24.3787 28.7491 24.3887C28.8275 24.4091 28.9081 24.4205 28.9891 24.4227C29.0031 24.4227 29.0161 24.4277 29.0301 24.4277H29.0351C29.0491 24.4277 29.0621 24.4277 29.0771 24.4277C29.1489 24.4259 29.2203 24.4165 29.2901 24.3997C29.3181 24.3917 29.3431 24.3797 29.3701 24.3697C29.4107 24.3582 29.4505 24.3438 29.4891 24.3267L30.9531 23.5477L32.1531 24.3007C32.1936 24.3227 32.2361 24.3408 32.2801 24.3547C32.3131 24.3667 32.3401 24.3847 32.3731 24.3937C32.4516 24.4137 32.5321 24.4248 32.6131 24.4267C32.627 24.4291 32.641 24.4308 32.6551 24.4317C32.6701 24.4317 32.6821 24.4317 32.6971 24.4267C32.7689 24.4249 32.8403 24.4155 32.9101 24.3987C32.9377 24.3905 32.9648 24.3805 32.9911 24.3687C33.0311 24.3567 33.0705 24.3427 33.1091 24.3267L34.5731 23.5477L35.7731 24.2997C35.8148 24.3219 35.8583 24.3407 35.9031 24.3557C35.9329 24.3702 35.9637 24.3829 35.9951 24.3937C36.0727 24.4147 36.1527 24.4261 36.2331 24.4277C36.2481 24.4277 36.2601 24.4327 36.2751 24.4327C36.2901 24.4327 36.3021 24.4327 36.3171 24.4327C36.3889 24.4303 36.4603 24.4202 36.5301 24.4027C36.5579 24.3949 36.585 24.3849 36.6111 24.3727C36.6514 24.3616 36.6908 24.3475 36.7291 24.3307L38.1931 23.5517L39.3931 24.3047C39.4346 24.326 39.4778 24.344 39.5221 24.3587C39.5523 24.3732 39.5834 24.3859 39.6151 24.3967C39.6931 24.4177 39.7733 24.4291 39.8541 24.4307C39.8691 24.4307 39.8821 24.4357 39.8961 24.4357C39.9101 24.4364 39.9241 24.4364 39.9381 24.4357C40.0102 24.4339 40.0819 24.4245 40.1521 24.4077C40.1801 24.3997 40.2051 24.3877 40.2321 24.3777C40.2725 24.3664 40.3119 24.3521 40.3501 24.3347L41.8151 23.5557L43.0151 24.3087C43.0419 24.322 43.0696 24.3334 43.0981 24.3427C43.1394 24.3653 43.1829 24.3834 43.2281 24.3967C43.2659 24.4066 43.3043 24.4143 43.3431 24.4197C43.3933 24.4292 43.4441 24.4352 43.4951 24.4377C43.5335 24.4371 43.5719 24.4344 43.6101 24.4297C43.6615 24.4272 43.7127 24.4205 43.7631 24.4097C43.8034 24.3991 43.8429 24.3854 43.8811 24.3687C43.9152 24.3598 43.9486 24.3484 43.9811 24.3347L45.4451 23.5557L46.4261 24.1727V47.6757H46.4501Z" fill="white"/>
</svg>
