<svg width="80" height="80" viewBox="0 0 80 80" fill="none" xmlns="http://www.w3.org/2000/svg">
<circle cx="39.8863" cy="39.8863" r="29" transform="rotate(-58.4564 39.8863 39.8863)" fill="#C83B53"/>
<path d="M53.7532 52.7963C53.6197 52.7961 53.4895 52.755 53.3802 52.6785C53.2708 52.602 53.1876 52.4937 53.1418 52.3684C53.0959 52.243 53.0897 52.1066 53.1238 51.9776C53.158 51.8486 53.231 51.7332 53.3329 51.6469C53.4347 51.5607 53.5606 51.5079 53.6935 51.4955C53.8264 51.4831 53.9599 51.5119 54.0759 51.5778C54.192 51.6438 54.285 51.7437 54.3424 51.8642C54.3998 51.9847 54.4188 52.1199 54.3968 52.2516C54.3704 52.4034 54.2915 52.5412 54.1739 52.6407C54.0562 52.7403 53.9073 52.7953 53.7532 52.7963V52.7963Z" fill="white"/>
<path d="M40.5913 49.0707C40.4182 49.0707 40.2522 49.002 40.1298 48.8795C40.0074 48.7571 39.9386 48.5911 39.9386 48.418V43.5224C39.9386 43.4367 39.9555 43.3518 39.9883 43.2726C40.0211 43.1934 40.0692 43.1215 40.1298 43.0608C40.1904 43.0002 40.2623 42.9522 40.3415 42.9194C40.4207 42.8866 40.5056 42.8697 40.5913 42.8697C40.677 42.8697 40.7619 42.8866 40.8411 42.9194C40.9203 42.9522 40.9922 43.0002 41.0528 43.0608C41.1134 43.1215 41.1615 43.1934 41.1943 43.2726C41.2271 43.3518 41.244 43.4367 41.244 43.5224V48.418C41.244 48.5911 41.1752 48.7571 41.0528 48.8795C40.9304 49.002 40.7644 49.0707 40.5913 49.0707Z" fill="white"/>
<path d="M56.6427 40.7246H47.2453V38.9844C47.2453 38.8986 47.2285 38.8138 47.1957 38.7346C47.1629 38.6554 47.1148 38.5834 47.0542 38.5228C46.9936 38.4622 46.9216 38.4141 46.8424 38.3813C46.7632 38.3485 46.6784 38.3316 46.5926 38.3316H34.5882C34.4151 38.3316 34.249 38.4004 34.1266 38.5228C34.0042 38.6452 33.9355 38.8112 33.9355 38.9844V42.4575H24.539C24.3659 42.4575 24.1999 42.5263 24.0775 42.6487C23.9551 42.7711 23.8864 42.9371 23.8864 43.1102V52.1408C23.8864 52.3139 23.9551 52.4799 24.0775 52.6023C24.1999 52.7247 24.3659 52.7935 24.539 52.7935H50.8147C50.9004 52.7935 50.9853 52.7766 51.0645 52.7438C51.1437 52.711 51.2156 52.6629 51.2763 52.6023C51.3369 52.5417 51.3849 52.4698 51.4177 52.3906C51.4505 52.3114 51.4674 52.2265 51.4674 52.1408C51.4674 52.0551 51.4505 51.9702 51.4177 51.891C51.3849 51.8118 51.3369 51.7399 51.2763 51.6793C51.2156 51.6187 51.1437 51.5706 51.0645 51.5378C50.9853 51.505 50.9004 51.4881 50.8147 51.4881H47.2453V42.029H55.99V52.1444C55.99 52.3175 56.0588 52.4835 56.1812 52.606C56.3036 52.7284 56.4696 52.7971 56.6427 52.7971C56.8158 52.7971 56.9818 52.7284 57.1042 52.606C57.2266 52.4835 57.2954 52.3175 57.2954 52.1444V41.3773C57.2954 41.2042 57.2266 41.0381 57.1042 40.9157C56.9818 40.7933 56.8158 40.7246 56.6427 40.7246V40.7246ZM25.1917 43.7665H33.9364V51.4917H25.1917V43.7665ZM35.2409 39.6361H45.9409V51.4917H35.2409V39.6361Z" fill="white"/>
<path d="M31.0487 39.0733C30.906 39.0732 30.7647 39.0448 30.633 38.9898L29.5636 38.5468L28.4933 38.9898C28.3226 39.0604 28.1367 39.086 27.9533 39.0642C27.77 39.0425 27.5952 38.974 27.4458 38.8655C27.2964 38.757 27.1773 38.6119 27.0999 38.4443C27.0225 38.2766 26.9893 38.0919 27.0037 37.9078L27.0944 36.7531L26.3419 35.8725C26.2216 35.7321 26.1394 35.5631 26.1032 35.3817C26.067 35.2004 26.0779 35.0127 26.1351 34.8369C26.1922 34.661 26.2936 34.5027 26.4295 34.3773C26.5654 34.2519 26.7312 34.1634 26.9111 34.1205L28.0367 33.8482L28.6422 32.8605C28.7388 32.703 28.8742 32.5728 29.0354 32.4826C29.1966 32.3923 29.3783 32.3449 29.5631 32.3449C29.7479 32.3449 29.9296 32.3923 30.0909 32.4826C30.2521 32.5728 30.3875 32.703 30.4841 32.8605L31.0896 33.8536L32.2161 34.1259C32.3959 34.1691 32.5615 34.2576 32.6972 34.3831C32.8329 34.5086 32.9342 34.6668 32.9913 34.8426C33.0484 35.0184 33.0595 35.2059 33.0234 35.3871C32.9873 35.5684 32.9053 35.7374 32.7853 35.878L32.0328 36.7585L32.1235 37.9132C32.135 38.0616 32.1158 38.2107 32.067 38.3513C32.0183 38.4918 31.941 38.6209 31.8402 38.7303C31.7393 38.8396 31.617 38.9271 31.4808 38.987C31.3446 39.047 31.1975 39.0782 31.0487 39.0788V39.0733ZM27.5719 35.3061L28.2609 36.1131C28.3732 36.2446 28.4288 36.4154 28.4153 36.5878L28.3317 37.6454L29.3121 37.2387C29.472 37.1725 29.6516 37.1725 29.8114 37.2387L30.7918 37.6454L30.7083 36.5878C30.6948 36.4154 30.7503 36.2446 30.8626 36.1131L31.5516 35.3061L30.5195 35.0582C30.4356 35.0381 30.3565 35.0015 30.2868 34.9505C30.2172 34.8996 30.1583 34.8353 30.1137 34.7614L29.5591 33.8536L29.0053 34.7614C28.9148 34.9088 28.7695 35.0142 28.6013 35.0546L27.5719 35.3061Z" fill="white"/>
<path d="M50.1321 39.0725C49.9833 39.0719 49.8362 39.0407 49.7 38.9807C49.5638 38.9208 49.4415 38.8333 49.3406 38.724C49.2398 38.6146 49.1625 38.4855 49.1138 38.345C49.065 38.2044 49.0458 38.0552 49.0573 37.9069L49.148 36.7522L48.3955 35.8717C48.2755 35.7311 48.1935 35.5621 48.1574 35.3808C48.1213 35.1996 48.1324 35.0121 48.1895 34.8363C48.2466 34.6605 48.3479 34.5023 48.4836 34.3768C48.6193 34.2513 48.7849 34.1628 48.9647 34.1196L50.0912 33.8473L50.6967 32.8596C50.7933 32.7021 50.9287 32.572 51.0899 32.4817C51.2512 32.3914 51.4329 32.344 51.6177 32.344C51.8025 32.344 51.9842 32.3914 52.1454 32.4817C52.3066 32.572 52.442 32.7021 52.5386 32.8596L53.1441 33.8473L54.2697 34.1196C54.4495 34.1628 54.6151 34.2513 54.7508 34.3768C54.8865 34.5023 54.9878 34.6605 55.0449 34.8363C55.102 35.0121 55.1131 35.1996 55.077 35.3808C55.0409 35.5621 54.959 35.7311 54.8389 35.8717L54.0864 36.7522L54.1771 37.9069C54.1917 38.0911 54.1588 38.2759 54.0814 38.4438C54.0041 38.6116 53.885 38.7567 53.7355 38.8653C53.586 38.9739 53.4111 39.0423 53.2276 39.064C53.0441 39.0856 52.8582 39.0598 52.6875 38.989L51.6172 38.546L50.5478 38.989C50.416 39.0438 50.2748 39.0722 50.1321 39.0725V39.0725ZM51.6172 37.187C51.7029 37.1871 51.7877 37.204 51.8668 37.237L52.8473 37.6436L52.7637 36.5861C52.7502 36.4136 52.8057 36.2429 52.9181 36.1113L53.6071 35.3043L52.5749 35.0565C52.4916 35.0365 52.4131 35.0004 52.3437 34.9501C52.2744 34.8998 52.2157 34.8363 52.171 34.7633L51.6163 33.8555L51.0626 34.7633C51.0178 34.8363 50.9591 34.8998 50.8897 34.9501C50.8204 35.0004 50.7419 35.0365 50.6586 35.0565L49.6264 35.3043L50.3164 36.1113C50.4288 36.2431 50.4843 36.4142 50.4707 36.587L50.3872 37.6445L51.3676 37.2379C51.4466 37.2047 51.5315 37.1874 51.6172 37.187Z" fill="white"/>
<path d="M37.9887 35.6882C37.7955 35.6876 37.6045 35.647 37.4277 35.5692C37.2509 35.4914 37.092 35.3779 36.9611 35.2358C36.8301 35.0938 36.7299 34.9263 36.6666 34.7437C36.6033 34.5612 36.5784 34.3676 36.5934 34.175L36.7686 31.9491L35.3162 30.2515C35.1613 30.0691 35.0557 29.8502 35.0095 29.6154C34.9632 29.3807 34.9778 29.138 35.0519 28.9105C35.126 28.683 35.2571 28.4782 35.4327 28.3157C35.6083 28.1532 35.8225 28.0383 36.0551 27.9821L38.2265 27.461L39.3948 25.5556C39.5201 25.3511 39.6958 25.1822 39.905 25.065C40.1143 24.9478 40.3501 24.8863 40.5899 24.8863C40.8297 24.8863 41.0655 24.9478 41.2748 25.065C41.484 25.1822 41.6597 25.3511 41.785 25.5556L42.9515 27.4619L45.1229 27.983C45.3555 28.0393 45.5698 28.1541 45.7454 28.3166C45.921 28.4791 46.0521 28.6839 46.1261 28.9114C46.2002 29.1389 46.2148 29.3816 46.1685 29.6163C46.1223 29.8511 46.0167 30.0701 45.8619 30.2525L44.4094 31.95L44.5846 34.1759C44.6036 34.4151 44.5608 34.6551 44.4604 34.8731C44.3599 35.091 44.2053 35.2795 44.0111 35.4206C43.817 35.5616 43.5899 35.6504 43.3516 35.6785C43.1133 35.7066 42.8717 35.6731 42.6501 35.5811L40.5877 34.726L38.5243 35.5811C38.3534 35.6522 38.1701 35.689 37.985 35.6891L37.9887 35.6882ZM40.5913 26.1874C40.5746 26.1868 40.558 26.1908 40.5435 26.1989C40.5289 26.2071 40.5168 26.2191 40.5087 26.2337L39.2015 28.3688C39.1567 28.4418 39.098 28.5053 39.0287 28.5556C38.9594 28.6059 38.8808 28.6421 38.7975 28.662L36.3628 29.2466C36.3466 29.2504 36.3317 29.2582 36.3194 29.2695C36.3072 29.2807 36.2981 29.2949 36.2929 29.3108C36.2878 29.3266 36.2869 29.3434 36.2902 29.3597C36.2936 29.376 36.3011 29.3912 36.312 29.4037L37.9378 31.31C37.9936 31.3753 38.0359 31.4509 38.0624 31.5325C38.0888 31.6141 38.099 31.7002 38.0922 31.7857L37.8952 34.2812C37.894 34.2977 37.897 34.3142 37.9039 34.3292C37.9109 34.3442 37.9215 34.3571 37.9349 34.3669C37.9482 34.3766 37.9639 34.3827 37.9803 34.3847C37.9967 34.3867 38.0133 34.3845 38.0286 34.3783L40.3407 33.4188C40.5006 33.3526 40.6802 33.3526 40.84 33.4188L43.153 34.3774C43.1683 34.3839 43.1851 34.3863 43.2016 34.3844C43.2181 34.3825 43.2338 34.3764 43.2473 34.3666C43.2607 34.3568 43.2714 34.3437 43.2782 34.3286C43.2851 34.3135 43.288 34.2968 43.2865 34.2803L43.0895 31.7848C43.0827 31.6992 43.0928 31.6132 43.1193 31.5316C43.1458 31.45 43.1881 31.3744 43.2438 31.3091L44.8706 29.4028C44.8815 29.3902 44.889 29.3751 44.8923 29.3588C44.8957 29.3425 44.8947 29.3257 44.8896 29.3098C44.8845 29.294 44.8754 29.2798 44.8631 29.2686C44.8509 29.2573 44.8359 29.2495 44.8197 29.2457L42.3851 28.6611C42.3018 28.6412 42.2232 28.605 42.1539 28.5547C42.0846 28.5044 42.0259 28.4409 41.9811 28.3679L40.673 26.2328C40.6642 26.2191 40.6519 26.208 40.6374 26.2006C40.6229 26.1933 40.6066 26.19 40.5904 26.191L40.5913 26.1874Z" fill="white"/>
</svg>
