<svg width="58" height="58" viewBox="0 0 58 58" fill="none" xmlns="http://www.w3.org/2000/svg">
<circle cx="29" cy="29" r="29" fill="#C83B53"/>
<path d="M30.1572 34.3139L30.1572 35.3296L31.1729 35.3296L31.1729 34.3139L30.1572 34.3139Z" fill="white"/>
<path d="M32.1885 34.3139L32.1885 35.3296L33.2042 35.3296L33.2042 34.3139L32.1885 34.3139Z" fill="white"/>
<path d="M34.2197 34.3139L34.2197 35.3296L35.2354 35.3296L35.2354 34.3139L34.2197 34.3139Z" fill="white"/>
<path d="M28.126 34.3139L28.126 35.3296L29.1417 35.3296L29.1417 34.3139L28.126 34.3139Z" fill="white"/>
<path d="M26.0937 34.3139L26.0938 35.3296L27.1094 35.3296L27.1094 34.3139L26.0937 34.3139Z" fill="white"/>
<path d="M24.0625 34.3139L24.0625 35.3296L25.0782 35.3296L25.0782 34.3139L24.0625 34.3139Z" fill="white"/>
<path d="M22.0312 34.3139L22.0312 35.3296L23.0469 35.3296L23.0469 34.3139L22.0312 34.3139Z" fill="white"/>
<path d="M22.0312 41.4235L22.0312 42.4392L23.0469 42.4392L23.0469 41.4235L22.0312 41.4235Z" fill="white"/>
<path d="M22.0312 16.0314L22.0312 17.0471L23.0469 17.0471L23.0469 16.0314L22.0312 16.0314Z" fill="white"/>
<path d="M34.2197 16.0314L34.2197 17.0471L35.2354 17.0471L35.2354 16.0314L34.2197 16.0314Z" fill="white"/>
<path d="M34.2197 41.4235L34.2197 42.4392L35.2354 42.4392L35.2354 41.4235L34.2197 41.4235Z" fill="white"/>
<path d="M26.0941 14.508C26.0941 14.2275 25.8667 14.0001 25.5863 14.0001L20.5078 14.0001C20.2274 14.0001 20 14.2275 20 14.508L20 43.9629C20 44.2433 20.2274 44.4707 20.5078 44.4707L25.5863 44.4707C25.8667 44.4707 26.0941 44.2433 26.0941 43.9629C26.0941 42.5605 27.231 41.4236 28.6333 41.4236C30.0357 41.4236 31.1725 42.5605 31.1725 43.9629C31.1725 44.2433 31.3999 44.4707 31.6804 44.4707L36.7588 44.4707C37.0393 44.4707 37.2667 44.2433 37.2667 43.9629L37.2667 14.508C37.2667 14.2275 37.0393 14.0001 36.7588 14.0001L31.6804 14.0001C31.3999 14.0001 31.1725 14.2275 31.1725 14.508C31.1725 15.9103 30.0357 17.0472 28.6333 17.0472C27.231 17.0472 26.0941 15.9103 26.0941 14.508ZM29.1384 18.0296C30.7006 17.8054 31.928 16.578 32.1522 15.0158L36.251 15.0158L36.251 43.455L32.1522 43.455C31.8732 41.5116 30.0717 40.1623 28.1283 40.4412C26.5661 40.6654 25.3387 41.8928 25.1145 43.455L21.0157 43.455L21.0157 15.0158L25.1145 15.0158C25.3934 16.9592 27.1949 18.3085 29.1384 18.0296Z" fill="white"/>
<path d="M23.5547 29.2355C23.5547 30.3574 24.4642 31.2668 25.5861 31.2668C26.7079 31.2668 27.6174 30.3574 27.6174 29.2355C27.6174 28.1136 26.7079 27.2041 25.5861 27.2041C24.4642 27.2041 23.5547 28.1136 23.5547 29.2355ZM26.6017 29.2355C26.6017 29.7964 26.147 30.2512 25.5861 30.2512C25.0251 30.2512 24.5704 29.7964 24.5704 29.2355C24.5704 28.6745 25.0251 28.2198 25.5861 28.2198C26.147 28.2198 26.6017 28.6745 26.6017 29.2355Z" fill="white"/>
<path d="M29.6494 23.1412C29.6494 24.2631 30.5589 25.1726 31.6808 25.1726C32.8027 25.1726 33.7122 24.2631 33.7122 23.1412C33.7122 22.0193 32.8027 21.1099 31.6808 21.1099C30.5589 21.1099 29.6494 22.0193 29.6494 23.1412ZM32.6965 23.1412C32.6965 23.7022 32.2418 24.1569 31.6808 24.1569C31.1198 24.1569 30.6651 23.7022 30.6651 23.1412C30.6651 22.5803 31.1198 22.1255 31.6808 22.1255C32.2418 22.1255 32.6965 22.5803 32.6965 23.1412Z" fill="white"/>
<path d="M24.2097 22.4848L32.335 30.6101L33.0532 29.8919L24.9278 21.7666L24.2097 22.4848Z" fill="white"/>
</svg>
